<?xml version="1.0" encoding="UTF-8"?>
<svg version="1.1" xmlns="http://www.w3.org/2000/svg" width="48" height="48">
<path d="M0 0 C4.33304076 0.64465202 7.86672065 2.18925122 11.8125 4.0625 C12.97394531 4.61035156 14.13539062 5.15820312 15.33203125 5.72265625 C16.21246094 6.14417969 17.09289062 6.56570312 18 7 C18.11951953 13.38765483 17.98527444 19.74791297 17.625 26.125 C17.55539063 27.40632813 17.48578125 28.68765625 17.4140625 30.0078125 C17.27742188 30.99523437 17.14078125 31.98265625 17 33 C16.01 33.495 16.01 33.495 15 34 C12.85887804 29.48162525 10.72276559 24.96093035 8.59130859 20.43798828 C7.86515108 18.89892423 7.13761669 17.36050903 6.40869141 15.82275391 C5.36260124 13.61529016 4.32144702 11.40555811 3.28125 9.1953125 C2.95314331 8.50567413 2.62503662 7.81603577 2.2869873 7.10549927 C0 2.22774341 0 2.22774341 0 0 Z " fill="#B120E8" transform="translate(29,0)"/>
<path d="M0 0 C-1.38374954 4.40814726 -3.08163188 8.52740932 -5.0390625 12.7109375 C-5.32478119 13.32393707 -5.61049988 13.93693665 -5.90487671 14.56851196 C-6.80853068 16.50545216 -7.71668169 18.44024344 -8.625 20.375 C-9.24248725 21.69647456 -9.85967767 23.01808786 -10.4765625 24.33984375 C-11.98094748 27.56150664 -13.48937009 30.78125977 -15 34 C-15.66 33.67 -16.32 33.34 -17 33 C-17.4140625 30.0078125 -17.4140625 30.0078125 -17.625 26.125 C-17.66294678 25.45331787 -17.70089355 24.78163574 -17.73999023 24.08959961 C-18.03853371 18.39290264 -18.10672102 12.70364543 -18 7 C-15.56568361 5.82625827 -13.12795818 4.66084237 -10.6875 3.5 C-9.99720703 3.16613281 -9.30691406 2.83226562 -8.59570312 2.48828125 C-3.33984375 0 -3.33984375 0 0 0 Z " fill="#FA2BC1" transform="translate(19,0)"/>
<path d="M0 0 C6.6 0 13.2 0 20 0 C22 4 22 4 21.88671875 6.07421875 C20.08694629 9.98297568 15.83006009 11.48206649 12 13 C6.47734254 13.22541459 2.40303047 10.02848035 -2 7 C-1.125 2.25 -1.125 2.25 0 0 Z " fill="#EF0C5D" transform="translate(14,35)"/>
<path d="M0 0 C0.66 0 1.32 0 2 0 C2.11951953 6.38765483 1.98527444 12.74791297 1.625 19.125 C1.55539063 20.40632813 1.48578125 21.68765625 1.4140625 23.0078125 C1.27742188 23.99523437 1.14078125 24.98265625 1 26 C0.34 26.33 -0.32 26.66 -1 27 C-7.10291798 15.97103527 -7.10291798 15.97103527 -6.87109375 11.53125 C-5.37571796 7.46006985 -2.85445064 4.24816797 0 1 C0 0.67 0 0.34 0 0 Z " fill="#890EEF" transform="translate(45,7)"/>
<path d="M0 0 C0.66 0 1.32 0 2 0 C3.98 4.95 5.96 9.9 8 15 C3.38 15 -1.24 15 -6 15 C-4.02 10.05 -2.04 5.1 0 0 Z " fill="#D921B9" transform="translate(23,13)"/>
<path d="M0 0 C0.33 0.99 0.66 1.98 1 3 C0.21625 3.70125 -0.5675 4.4025 -1.375 5.125 C-4.08360818 8.09157086 -5.01722715 10.1582516 -6 14 C-6.99 13.01 -7.98 12.02 -9 11 C-6.46153846 -0 -6.46153846 -0 0 0 Z " fill="#9D18EC" transform="translate(45,6)"/>
<path d="M0 0 C0.66 0 1.32 0 2 0 C2 4.62 2 9.24 2 14 C1.01 14.495 1.01 14.495 0 15 C-1.6875 12.5625 -1.6875 12.5625 -3 9 C-2.38181503 5.83180201 -1.28102828 2.95621911 0 0 Z " fill="#7B07F1" transform="translate(44,19)"/>
<path d="M0 0 C0.33 1.32 0.66 2.64 1 4 C3.46800047 2.84826645 5.04783565 1.95216435 7 0 C6.39254603 4.85963179 4.27241033 8.7405518 2 13 C1.34 12.67 0.68 12.34 0 12 C0 8.04 0 4.08 0 0 Z " fill="#F4239C" transform="translate(2,21)"/>
<path d="M0 0 C5.875 4.625 5.875 4.625 7 8 C3.7 8 0.4 8 -3 8 C-2.01 5.36 -1.02 2.72 0 0 Z " fill="#EA1F9A" transform="translate(20,20)"/>
<path d="M0 0 C1.65 0 3.3 0 5 0 C6.42944945 2.35438733 7.08661261 3.48032433 6.625 6.25 C6.41875 6.8275 6.2125 7.405 6 8 C5.01 7.67 4.02 7.34 3 7 C1.3125 3.4375 1.3125 3.4375 0 0 Z " fill="#D00B94" transform="translate(29,35)"/>
<path d="M0 0 C0.99 0.33 1.98 0.66 3 1 C3 1.99 3 2.98 3 4 C3.99 4.33 4.98 4.66 6 5 C7.1875 7.5625 7.1875 7.5625 8 10 C4.23077307 8.74359102 2.574302 6.99175638 0 4 C0 2.68 0 1.36 0 0 Z " fill="#E521A8" transform="translate(21,18)"/>
<path d="M0 0 C2.475 0.495 2.475 0.495 5 1 C5 2.32 5 3.64 5 5 C4.01 5.33 3.02 5.66 2 6 C1.34 4.02 0.68 2.04 0 0 Z " fill="#C424E3" transform="translate(29,0)"/>
<path d="M0 0 C1.68762851 1.6454378 3.3540349 3.31288577 5 5 C5 5.33 5 5.66 5 6 C2.69 6 0.38 6 -2 6 C-1.34 4.02 -0.68 2.04 0 0 Z " fill="#F21D8C" transform="translate(19,22)"/>
<path d="M0 0 C1.98 0.99 1.98 0.99 4 2 C3.34 3.98 2.68 5.96 2 8 C1.34 7.67 0.68 7.34 0 7 C0 4.69 0 2.38 0 0 Z " fill="#F11D82" transform="translate(2,26)"/>
</svg>
