<svg width="50" height="50" viewBox="0 0 50 50" fill="none" xmlns="http://www.w3.org/2000/svg">
<path d="M43.75 6.25H29.6875M43.75 6.25V20.3125M43.75 6.25L26.5625 23.4375M19.5833 6.25C14.9167 6.25 12.5833 6.25 10.8 7.15833C9.23205 7.95727 7.95727 9.23205 7.15833 10.8C6.25 12.5833 6.25 14.9167 6.25 19.5833V30.4167C6.25 35.0833 6.25 37.4167 7.15833 39.2C7.95727 40.7679 9.23205 42.0427 10.8 42.8417C12.5833 43.75 14.9167 43.75 19.5833 43.75H30.4167C35.0833 43.75 37.4167 43.75 39.2 42.8417C40.7679 42.0427 42.0427 40.7679 42.8417 39.2C43.75 37.4167 43.75 35.0833 43.75 30.4167V28.125" stroke="#0D99FF" style="stroke:#0D99FF;stroke:color(display-p3 0.0510 0.6000 1.0000);stroke-opacity:1;" stroke-width="2" stroke-linecap="round" stroke-linejoin="round"/>
</svg>
