<svg width="50" height="50" viewBox="0 0 50 50" fill="none" xmlns="http://www.w3.org/2000/svg">
<path d="M35.4165 14.5833C36.5216 14.5833 37.5814 14.1443 38.3628 13.3629C39.1442 12.5815 39.5832 11.5217 39.5832 10.4167C39.5832 9.3116 39.1442 8.25179 38.3628 7.47039C37.5814 6.68899 36.5216 6.25 35.4165 6.25C34.3114 6.25 33.2516 6.68899 32.4702 7.47039C31.6888 8.25179 31.2498 9.3116 31.2498 10.4167C31.2498 11.5217 31.6888 12.5815 32.4702 13.3629C33.2516 14.1443 34.3114 14.5833 35.4165 14.5833ZM35.4165 14.5833V16.6667C35.4165 21.875 31.2498 22.9167 31.2498 22.9167L18.7498 27.0833C18.7498 27.0833 14.5832 28.125 14.5832 33.3333V35.4167M14.5832 14.5833C15.6882 14.5833 16.748 14.1443 17.5294 13.3629C18.3108 12.5815 18.7498 11.5217 18.7498 10.4167C18.7498 9.3116 18.3108 8.25179 17.5294 7.47039C16.748 6.68899 15.6882 6.25 14.5832 6.25C13.4781 6.25 12.4183 6.68899 11.6369 7.47039C10.8555 8.25179 10.4165 9.3116 10.4165 10.4167C10.4165 11.5217 10.8555 12.5815 11.6369 13.3629C12.4183 14.1443 13.4781 14.5833 14.5832 14.5833ZM14.5832 14.5833V35.4167M14.5832 35.4167C15.6882 35.4167 16.748 35.8557 17.5294 36.6371C18.3108 37.4185 18.7498 38.4783 18.7498 39.5833C18.7498 40.6884 18.3108 41.7482 17.5294 42.5296C16.748 43.311 15.6882 43.75 14.5832 43.75C13.4781 43.75 12.4183 43.311 11.6369 42.5296C10.8555 41.7482 10.4165 40.6884 10.4165 39.5833C10.4165 38.4783 10.8555 37.4185 11.6369 36.6371C12.4183 35.8557 13.4781 35.4167 14.5832 35.4167Z" stroke="#757575" style="stroke:#757575;stroke:color(display-p3 0.4588 0.4588 0.4588);stroke-opacity:1;" stroke-width="3.125" stroke-linecap="round" stroke-linejoin="round"/>
</svg>
