<svg width="50" height="50" viewBox="0 0 50 50" fill="none" xmlns="http://www.w3.org/2000/svg">
<path d="M25.0002 35.9897L16.3544 41.198C15.9724 41.441 15.5731 41.5452 15.1564 41.5105C14.7398 41.4758 14.3752 41.3369 14.0627 41.0938C13.7502 40.8508 13.5071 40.5473 13.3335 40.1834C13.1599 39.8195 13.1252 39.4112 13.2294 38.9584L15.521 29.1147L7.86478 22.5001C7.51756 22.1876 7.30089 21.8313 7.21478 21.4313C7.12867 21.0313 7.15436 20.6411 7.29186 20.2605C7.42936 19.8799 7.6377 19.5674 7.91686 19.323C8.19603 19.0786 8.57797 18.9223 9.0627 18.8542L19.1669 17.9688L23.0731 8.698C23.2467 8.28133 23.5162 7.96883 23.8814 7.7605C24.2467 7.55216 24.6196 7.448 25.0002 7.448C25.3808 7.448 25.7537 7.55216 26.1189 7.7605C26.4842 7.96883 26.7537 8.28133 26.9273 8.698L30.8335 17.9688L40.9377 18.8542C41.4238 18.9237 41.8058 19.0799 42.0835 19.323C42.3613 19.5661 42.5696 19.8786 42.7085 20.2605C42.8474 20.6424 42.8738 21.0334 42.7877 21.4334C42.7016 21.8334 42.4842 22.189 42.1356 22.5001L34.4794 29.1147L36.771 38.9584C36.8752 39.4098 36.8405 39.8181 36.6669 40.1834C36.4933 40.5487 36.2502 40.8522 35.9377 41.0938C35.6252 41.3355 35.2606 41.4744 34.8439 41.5105C34.4273 41.5466 34.028 41.4424 33.646 41.198L25.0002 35.9897Z" fill="#FFCD29" style="fill:#FFCD29;fill:color(display-p3 1.0000 0.8039 0.1608);fill-opacity:1;"/>
</svg>
