<svg width="50" height="50" viewBox="0 0 50 50" fill="none" xmlns="http://www.w3.org/2000/svg">
<g clip-path="url(#clip0_191_263)">
<path d="M50 25C50 11.1914 38.8086 0 25 0C11.1914 0 0 11.1914 0 25C0 38.8086 11.1914 50 25 50C38.8086 50 50 38.8086 50 25Z" fill="#A6CE39" style="fill:#A6CE39;fill:color(display-p3 0.6510 0.8078 0.2235);fill-opacity:1;"/>
<path d="M16.8945 36.3281H13.8672V15.4297H16.8945V36.3281ZM21.2891 15.4297H29.3945C37.1094 15.4297 40.5273 20.9961 40.5273 25.8789C40.5273 31.25 36.3281 36.3281 29.3945 36.3281H21.1914L21.2891 15.4297ZM24.3164 33.6914H29.1016C35.9375 33.6914 37.5 28.5156 37.5 25.9766C37.5 21.7773 34.8633 18.2617 29.0039 18.2617H24.4141L24.3164 33.6914ZM17.3828 11.1328C17.3828 12.207 16.5039 13.0859 15.4297 13.0859C14.3555 13.0859 13.4766 12.207 13.4766 11.1328C13.4766 10.0547 14.3516 9.17969 15.4297 9.17969C16.5039 9.17969 17.3828 10.0586 17.3828 11.1328Z" fill="white" style="fill:white;fill-opacity:1;"/>
</g>
<defs>
<clipPath id="clip0_191_263">
<rect width="50" height="50" fill="white" style="fill:white;fill-opacity:1;"/>
</clipPath>
</defs>
</svg>
