<svg width="50" height="50" viewBox="0 0 50 50" fill="none" xmlns="http://www.w3.org/2000/svg">
<g clip-path="url(#clip0_191_254)">
<path fill-rule="evenodd" clip-rule="evenodd" d="M20.8332 6.25C22.2221 6.25 23.6109 6.77778 24.9998 7.83333C26.3887 6.77778 27.7776 6.25 29.1665 6.25H41.6665C42.7716 6.25 43.8314 6.68899 44.6128 7.47039C45.3942 8.25179 45.8332 9.3116 45.8332 10.4167V37.5C45.8332 38.6051 45.3942 39.6649 44.6128 40.4463C43.8314 41.2277 42.7716 41.6667 41.6665 41.6667H27.0832C27.0832 42.8167 26.1457 43.75 24.9998 43.75C23.854 43.75 22.9165 42.8125 22.9165 41.6667H8.33317C7.2281 41.6667 6.16829 41.2277 5.38689 40.4463C4.60549 39.6649 4.1665 38.6051 4.1665 37.5V10.4167C4.1665 9.3116 4.60549 8.25179 5.38689 7.47039C6.16829 6.68899 7.2281 6.25 8.33317 6.25H20.8332ZM20.8332 10.4167H8.33317V37.5H22.9165V12.5C22.9165 11.3542 21.979 10.4167 20.8332 10.4167ZM41.6665 10.4167H29.1665C28.0207 10.4167 27.0832 11.3542 27.0832 12.5V37.5H41.6665V10.4167Z" fill="white" style="fill:white;fill-opacity:1;"/>
</g>
<defs>
<clipPath id="clip0_191_254">
<rect width="50" height="50" fill="white" style="fill:white;fill-opacity:1;"/>
</clipPath>
</defs>
</svg>
