<?xml version="1.0" encoding="UTF-8"?>
<svg version="1.1" xmlns="http://www.w3.org/2000/svg" width="237" height="213">
<path d="M0 0 C78.21 0 156.42 0 237 0 C237 70.29 237 140.58 237 213 C158.79 213 80.58 213 0 213 C0 142.71 0 72.42 0 0 Z " fill="#6DB33F" transform="translate(0,0)"/>
<path d="M0 0 C2.88381579 2.58803981 3.8491179 4.19529549 4.5625 8 C3.7960077 12.08795895 2.11951892 13.27871753 -1 16 C-10.4979598 24.3473756 -17.21191769 35.58741131 -18.27734375 48.3125 C-18.67118405 62.67979419 -15.02008162 76.40219362 -5.0859375 87.1171875 C7.21896049 98.22385572 19.92746615 100.67197079 35.87988281 100.13623047 C46.93942311 99.42558751 57.59867488 93.01935837 65 85 C73.96359691 73.14434076 77.16926432 60.78872331 76 46 C73.2929114 32.60377871 66.95997946 22.7031406 56.625 14 C54.18100581 10.99200716 53.93374589 8.8427383 54 5 C56.30564086 1.03717978 57.73261456 -0.65209027 62.1875 -1.875 C72.64958537 0.52613435 79.44984699 10.440856 85 19 C94.58828104 35.35032203 96.80139315 53.10512068 92.15625 71.53515625 C86.17917518 89.44618789 75.08036141 103.58110613 58.16796875 112.4921875 C41.07510222 120.22630917 23.63870081 121.09405758 6 115 C-12.96220303 107.33346337 -25.14472789 93.45645706 -33 75 C-33.38414063 74.09765625 -33.76828125 73.1953125 -34.1640625 72.265625 C-39.2436146 57.35927584 -36.73548394 39.64870481 -30.4921875 25.609375 C-25.09050527 14.80601054 -13.77286567 -3.32448482 0 0 Z " fill="#FCFDFC" transform="translate(89,49)"/>
<path d="M0 0 C22.44 0 44.88 0 68 0 C68 33.66 68 67.32 68 102 C66.94554947 99.89109895 65.8949491 97.78001536 64.87890625 95.65234375 C60.57078741 86.76764763 55.61286428 78.30514177 50.62744141 69.78857422 C47.64795374 64.68330747 44.7015608 59.55894367 41.75 54.4375 C41.12303223 53.35210937 40.49606445 52.26671875 39.85009766 51.1484375 C36.86722448 45.98347263 33.89062789 40.81522447 30.93911743 35.63227844 C29.92690733 33.85553374 28.9125158 32.08005242 27.89746094 30.30493164 C26.62683551 28.08133715 25.36030046 25.85539832 24.09863281 23.62670898 C17.94216465 11.92851012 17.94216465 11.92851012 7.8125 4.125 C4.96108738 2.87230567 2.6107959 1.7405306 0 0 Z " fill="#FEFEFE" transform="translate(169,0)"/>
<path d="M0 0 C0.33 0 0.66 0 1 0 C1 33.66 1 67.32 1 102 C-21.77 102 -44.54 102 -68 102 C-65.90051831 100.95025916 -63.79252005 99.91166695 -61.6328125 98.9921875 C-60.80523437 98.62351562 -59.97765625 98.25484375 -59.125 97.875 C-58.30257812 97.52179688 -57.48015625 97.16859375 -56.6328125 96.8046875 C-49.054572 91.61010722 -45.00813303 82.06167785 -40.625 74.25 C-39.92523898 73.01300841 -39.22486822 71.77636158 -38.52392578 70.54003906 C-37.07016664 67.97466901 -35.6190152 65.40785212 -34.16992188 62.83984375 C-31.08811227 57.38174053 -27.98152105 51.93782534 -24.87182617 46.49557495 C-23.87748701 44.75435509 -22.88493604 43.01212501 -21.89257812 41.26977539 C-18.62174801 35.53812376 -15.31952564 29.82846023 -11.953125 24.15234375 C-11.30875488 23.06276367 -10.66438477 21.97318359 -10.00048828 20.85058594 C-8.78707801 18.80412103 -7.56712201 16.76151712 -6.33935547 14.72363281 C-3.45905664 9.86296814 -1.20620449 5.53479906 0 0 Z " fill="#FEFEFE" transform="translate(236,111)"/>
<path d="M0 0 C1.10277455 2.20554911 2.20170809 4.41308345 3.28369141 6.62890625 C6.71089065 13.59696481 10.41203692 20.32456798 14.375 27 C15.61313001 29.1034897 16.85006006 31.20768605 18.0859375 33.3125 C19.0464502 34.94832031 19.0464502 34.94832031 20.02636719 36.6171875 C23.05093951 41.80131345 26.02248685 47.01524791 28.99176025 52.23114014 C29.99851828 53.99740046 31.00824917 55.76192546 32.01904297 57.52587891 C35.32614992 63.29916709 38.6086842 69.08428691 41.84375 74.8984375 C43.06218754 77.05746803 44.28092375 79.21633005 45.5 81.375 C46.03882813 82.36113281 46.57765625 83.34726563 47.1328125 84.36328125 C52.01621818 92.93931142 57.82236871 97.55838827 67 101 C67 101.33 67 101.66 67 102 C44.89 102 22.78 102 0 102 C0 68.34 0 34.68 0 0 Z " fill="#FEFEFE" transform="translate(0,111)"/>
<path d="M0 0 C22.11 0 44.22 0 67 0 C64 2 64 2 61.73046875 3.19140625 C60.89128906 3.64386719 60.05210938 4.09632813 59.1875 4.5625 C57.94033203 5.21412109 57.94033203 5.21412109 56.66796875 5.87890625 C49.72146839 11.40152659 45.80040709 20.66953141 41.51123047 28.27075195 C39.75427589 31.38381079 37.98597011 34.49041717 36.21875 37.59765625 C35.86167969 38.22604401 35.50460938 38.85443176 35.13671875 39.50186157 C31.8033874 45.36132812 28.40885262 51.18417447 25 57 C19.69934133 66.05465097 14.45826607 75.14200647 9.25 84.25 C8.89921387 84.86262695 8.54842773 85.47525391 8.18701172 86.10644531 C7.19113529 87.84629173 6.19709277 89.58718747 5.203125 91.328125 C4.63239258 92.3274707 4.06166016 93.32681641 3.47363281 94.35644531 C2.25688545 96.53917236 1.11756624 98.76486751 0 101 C0 67.67 0 34.34 0 0 Z " fill="#FEFEFE" transform="translate(0,0)"/>
<path d="M0 0 C2.92937654 1.81310142 5.43647949 3.87295899 7 7 C7.10672993 8.97481685 7.1488532 10.95324744 7.16113281 12.9309082 C7.17074036 14.17592606 7.1803479 15.42094391 7.19024658 16.70368958 C7.1950949 18.06938494 7.19937364 19.43508243 7.203125 20.80078125 C7.20887724 22.19842023 7.21463496 23.59605919 7.22039795 24.99369812 C7.23090901 27.92671069 7.23675068 30.85969585 7.24023438 33.79272461 C7.2457131 37.54545153 7.26972693 41.29781451 7.29820633 45.05042744 C7.31686124 47.9389704 7.32203986 50.82742629 7.32357025 53.7160244 C7.32659194 55.09908216 7.33460418 56.48213857 7.34775543 57.8651371 C7.36487018 59.80365408 7.36108302 61.74232122 7.35644531 63.6809082 C7.36009094 64.78296097 7.36373657 65.88501373 7.36749268 67.02046204 C6.9509841 70.39740859 5.98867966 72.26624255 4 75 C0.78446554 77.32849047 -2.11021377 77.54457007 -6 77 C-8.92483867 75.17452064 -11.43429205 73.13141589 -13 70 C-13.11693128 68.03074097 -13.16973851 66.05755287 -13.19287109 64.08496094 C-13.20893402 62.84317078 -13.22499695 61.60138062 -13.24154663 60.32196045 C-13.25303491 58.95943893 -13.26364331 57.59690975 -13.2734375 56.234375 C-13.27876118 55.54864662 -13.28408485 54.86291824 -13.28956985 54.15641022 C-13.31629899 50.52502053 -13.33567232 46.89366515 -13.35009766 43.26220703 C-13.36342479 40.26091957 -13.39125287 37.260314 -13.43212891 34.25927734 C-13.48152842 30.63237072 -13.50622761 27.00608152 -13.51332474 23.37885284 C-13.52002531 21.99936434 -13.53521664 20.61988897 -13.55921555 19.24059296 C-13.75841785 7.09633952 -13.75841785 7.09633952 -10.59228516 3.16894531 C-6.86910571 0.05378933 -4.86364711 -0.56119005 0 0 Z " fill="#FAFCF8" transform="translate(121,35)"/>
</svg>
