<?xml version="1.0" encoding="UTF-8"?>
<svg version="1.1" xmlns="http://www.w3.org/2000/svg" width="160" height="160">
<path d="M0 0 C0.680625 0.474375 1.36125 0.94875 2.0625 1.4375 C2.3925 0.4475 2.7225 -0.5425 3.0625 -1.5625 C4.3825 -1.2325 5.7025 -0.9025 7.0625 -0.5625 C7.0625 7.6875 7.0625 15.9375 7.0625 24.4375 C5.4125 25.0975 3.7625 25.7575 2.0625 26.4375 C2.578125 27.489375 3.09375 28.54125 3.625 29.625 C5.88397692 35.48356165 4.83350994 41.34373469 4.0625 47.4375 C6.09184615 46.93287148 6.09184615 46.93287148 8.0625 45.4375 C9.16159617 42.29941348 9.16159617 42.29941348 9.73046875 38.53125 C9.85561356 37.85074585 9.98075836 37.1702417 10.10969543 36.46911621 C10.50631641 34.29450315 10.87881088 32.11658437 11.25 29.9375 C11.6368426 27.75955934 12.02853139 25.58255683 12.42243958 23.40588379 C12.77718823 21.43157453 13.1197161 19.45508115 13.46166992 17.47851562 C14.0625 14.4375 14.0625 14.4375 15.0625 12.4375 C14.0725 12.4375 13.0825 12.4375 12.0625 12.4375 C11.9852582 7.88023372 12.06953588 3.90192924 13.0625 -0.5625 C16.4581697 -0.64995946 19.85354773 -0.70304444 23.25 -0.75 C24.20970703 -0.77513672 25.16941406 -0.80027344 26.15820312 -0.82617188 C35.10513951 -0.91904665 35.10513951 -0.91904665 39.0625 2.4375 C40.75 4.8125 40.75 4.8125 42.0625 7.4375 C42.6503125 8.55125 42.6503125 8.55125 43.25 9.6875 C45.69931692 17.97749572 43.40930024 24.74389953 39.6875 32.1875 C37.79413691 34.80907966 35.66504546 36.5383452 33.0625 38.4375 C33.48507276 39.9210001 33.92606322 41.39926424 34.375 42.875 C34.61863281 43.69871094 34.86226562 44.52242187 35.11328125 45.37109375 C35.42652344 46.05300781 35.73976563 46.73492187 36.0625 47.4375 C37.5475 47.9325 37.5475 47.9325 39.0625 48.4375 C39.3925 49.0975 39.7225 49.7575 40.0625 50.4375 C40.12308594 49.29410156 40.18367188 48.15070313 40.24609375 46.97265625 C40.33048428 45.48175695 40.41513302 43.99087225 40.5 42.5 C40.53931641 41.74525391 40.57863281 40.99050781 40.61914062 40.21289062 C40.94921875 34.55078125 40.94921875 34.55078125 42.0625 33.4375 C44.06208364 33.39669217 46.06295254 33.39495644 48.0625 33.4375 C48.495625 34.654375 48.92875 35.87125 49.375 37.125 C50.75906713 40.82459177 52.22051938 44.59551938 55.0625 47.4375 C57.47732413 47.93809916 57.47732413 47.93809916 60.0625 47.4375 C61.9249438 45.02891286 61.9249438 45.02891286 63.0625 42.4375 C62.381875 42.210625 61.70125 41.98375 61 41.75 C54.28364843 38.74907696 51.10538025 36.31690283 48.125 29.5625 C45.44039941 22.30610434 45.41306379 16.89573324 48.00390625 9.65625 C49.97247158 5.53025329 52.91539404 1.51105298 57.0625 -0.5625 C62.4782076 -0.91762837 65.57316735 -0.92949949 70.0625 2.4375 C70.3925 1.7775 70.7225 1.1175 71.0625 0.4375 C73.94015619 0.19769532 75.64891258 0.2130669 78.21484375 1.60546875 C80.0625 3.4375 80.0625 3.4375 80.48828125 5.96875 C80.45089844 6.9484375 80.41351563 7.928125 80.375 8.9375 C80.34019531 9.99453125 80.30539063 11.0515625 80.26953125 12.140625 C79.96949484 16.9185633 79.587075 21.67885534 79.0625 26.4375 C76.7525 26.7675 74.4425 27.0975 72.0625 27.4375 C68.74691485 23.05237125 67.51253347 20.06291841 67.0625 14.4375 C64.7525 14.7675 62.4425 15.0975 60.0625 15.4375 C59.4025 17.0875 58.7425 18.7375 58.0625 20.4375 C58.7225 20.623125 59.3825 20.80875 60.0625 21 C68.39422108 24.99228302 73.20810794 31.33792183 76.3125 39.875 C76.56 40.720625 76.8075 41.56625 77.0625 42.4375 C78.7125 40.4575 80.3625 38.4775 82.0625 36.4375 C81.4025 35.4475 80.7425 34.4575 80.0625 33.4375 C78.98614978 26.14084673 80.55610111 19.94356935 83.1875 13.1640625 C84.08414314 10.37005842 84.38254227 8.3478844 84.0625 5.4375 C83.0725 4.4475 83.0725 4.4475 82.0625 3.4375 C82.0625 2.1175 82.0625 0.7975 82.0625 -0.5625 C86.50181187 -0.24540629 89.42249728 0.85505275 92.80566406 3.8034668 C95.22825365 6.95311562 94.80446802 10.4370918 94.625 14.25 C94.62306641 15.01892578 94.62113281 15.78785156 94.61914062 16.58007812 C94.49269811 22.12949962 93.14102949 26.31228385 91.0625 31.4375 C90.68965548 35.91163424 90.93890354 38.54564991 93.0625 42.4375 C92.65330322 42.83332275 92.24410645 43.22914551 91.82250977 43.63696289 C87.25113953 48.43139356 85.93957047 52.41096057 85 58.875 C83.83321977 66.6103208 81.81205888 72.80511483 76.0625 78.375 C74.0625 79.4375 74.0625 79.4375 69.0625 80.4375 C67.7425 77.1375 66.4225 73.8375 65.0625 70.4375 C65.84625 69.963125 66.63 69.48875 67.4375 69 C70.9935969 65.52857207 71.37597549 62.2329249 72.0625 57.4375 C71.52625 58.200625 70.99 58.96375 70.4375 59.75 C67.73739889 62.80537757 65.91356644 64.10443854 62.0625 65.4375 C57.60048839 65.65665578 54.76007912 64.91708565 51.0625 62.375 C50.0725 61.4159375 50.0725 61.4159375 49.0625 60.4375 C48.0725 61.7575 47.0825 63.0775 46.0625 64.4375 C43.625 63.6875 43.625 63.6875 41.0625 62.4375 C40.25 60.3125 40.25 60.3125 40.0625 58.4375 C39.7325 60.0875 39.4025 61.7375 39.0625 63.4375 C35.4325 63.4375 31.8025 63.4375 28.0625 63.4375 C22.0625 46.58035714 22.0625 46.58035714 22.0625 38.4375 C21.4025 38.4375 20.7425 38.4375 20.0625 38.4375 C19.7325 41.4075 19.4025 44.3775 19.0625 47.4375 C19.7225 47.4375 20.3825 47.4375 21.0625 47.4375 C21.08962153 49.354088 21.10895097 51.2707873 21.125 53.1875 C21.13660156 54.25484375 21.14820313 55.3221875 21.16015625 56.421875 C21.0625 59.4375 21.0625 59.4375 20.0625 63.4375 C14.1225 63.4375 8.1825 63.4375 2.0625 63.4375 C2.0625 60.4675 2.0625 57.4975 2.0625 54.4375 C1.7325 55.159375 1.4025 55.88125 1.0625 56.625 C-1.64079683 60.42651117 -4.64163234 62.62704191 -8.9375 64.4375 C-15.05208651 64.6520469 -18.3420425 62.09510903 -22.9375 58.4375 C-23.2675 59.7575 -23.5975 61.0775 -23.9375 62.4375 C-25.5875 62.4375 -27.2375 62.4375 -28.9375 62.4375 C-29.02501413 58.56264365 -29.07806435 54.68804357 -29.125 50.8125 C-29.15013672 49.71808594 -29.17527344 48.62367187 -29.20117188 47.49609375 C-29.25440288 41.64068317 -29.23733099 37.37425502 -25.9375 32.4375 C-24.6175 32.4375 -23.2975 32.4375 -21.9375 32.4375 C-22.2675 31.674375 -22.5975 30.91125 -22.9375 30.125 C-25.33776399 21.27402653 -24.27557477 13.47983991 -19.9375 5.4375 C-17.92239096 2.27744264 -15.80878691 -0.03514213 -12.5625 -2 C-7.88005818 -3.00338039 -4.19301353 -2.23032635 0 0 Z M-11.9375 12.4375 C-12.2675 13.4275 -12.5975 14.4175 -12.9375 15.4375 C-9.83723691 18.71492098 -6.96651106 21.36854837 -2.9375 23.4375 C-2.2775 23.4375 -1.6175 23.4375 -0.9375 23.4375 C-1.38479476 18.6290813 -2.33433978 15.74851209 -5.9375 12.4375 C-9.10598027 12.01940799 -9.10598027 12.01940799 -11.9375 12.4375 Z M25.0625 14.4375 C24.7325 17.4075 24.4025 20.3775 24.0625 23.4375 C27.00341587 23.25334568 27.00341587 23.25334568 30.0625 22.4375 C32.23148181 19.57838761 32.0625 18.15306422 32.0625 14.4375 C29.7525 14.4375 27.4425 14.4375 25.0625 14.4375 Z M-17.9375 36.4375 C-17.43536665 40.83116678 -16.06567658 43.30932342 -12.9375 46.4375 C-10.39698786 47.41360842 -10.39698786 47.41360842 -7.9375 47.4375 C-7.2775 47.1075 -6.6175 46.7775 -5.9375 46.4375 C-6.28869173 43.60332109 -6.72241224 42.62101911 -8.93359375 40.734375 C-9.73925781 40.22390625 -10.54492188 39.7134375 -11.375 39.1875 C-12.17808594 38.66671875 -12.98117188 38.1459375 -13.80859375 37.609375 C-15.82449369 36.27675758 -15.82449369 36.27675758 -17.9375 36.4375 Z M3.0625 48.4375 C4.0625 50.4375 4.0625 50.4375 4.0625 50.4375 Z " fill="#4482B5" transform="translate(65.9375,38.5625)"/>
<path d="M0 0 C3 1.5 3 1.5 5 3 C5.33 2.34 5.66 1.68 6 1 C8.87765619 0.76019532 10.58641258 0.7755669 13.15234375 2.16796875 C15 4 15 4 15.42578125 6.53125 C15.38839844 7.5109375 15.35101563 8.490625 15.3125 9.5 C15.27769531 10.55703125 15.24289063 11.6140625 15.20703125 12.703125 C14.90699484 17.4810633 14.524575 22.24135534 14 27 C11.69 27.33 9.38 27.66 7 28 C3.68441485 23.61487125 2.45003347 20.62541841 2 15 C-0.31 15.33 -2.62 15.66 -5 16 C-5.99 18.475 -5.99 18.475 -7 21 C-6.34 21.185625 -5.68 21.37125 -5 21.5625 C3.33172108 25.55478302 8.14560794 31.90042183 11.25 40.4375 C11.4975 41.283125 11.745 42.12875 12 43 C13.65 41.02 15.3 39.04 17 37 C16.34 36.01 15.68 35.02 15 34 C13.92364978 26.70334673 15.49360111 20.50606935 18.125 13.7265625 C19.02164314 10.93255842 19.32004227 8.9103844 19 6 C18.34 5.34 17.68 4.68 17 4 C17 2.68 17 1.36 17 0 C21.43931187 0.31709371 24.35999728 1.41755275 27.74316406 4.3659668 C30.16575365 7.51561562 29.74196802 10.9995918 29.5625 14.8125 C29.56056641 15.58142578 29.55863281 16.35035156 29.55664062 17.14257812 C29.43019811 22.69199962 28.07852949 26.87478385 26 32 C25.62715548 36.47413424 25.87640354 39.10814991 28 43 C27.59080322 43.39582275 27.18160645 43.79164551 26.76000977 44.19946289 C22.18863953 48.99389356 20.87707047 52.97346057 19.9375 59.4375 C18.77071977 67.1728208 16.74955888 73.36761483 11 78.9375 C9 80 9 80 4 81 C2.68 77.7 1.36 74.4 0 71 C0.78375 70.525625 1.5675 70.05125 2.375 69.5625 C5.9310969 66.09107207 6.31347549 62.7954249 7 58 C6.46375 58.763125 5.9275 59.52625 5.375 60.3125 C2.67489889 63.36787757 0.85106644 64.66693854 -3 66 C-7.46201161 66.21915578 -10.30242088 65.47958565 -14 62.9375 C-14.99 61.9784375 -14.99 61.9784375 -16 61 C-16.99 62.32 -17.98 63.64 -19 65 C-20.32 64.67 -21.64 64.34 -23 64 C-22.835 62.80375 -22.67 61.6075 -22.5 60.375 C-21.56257075 51.80227743 -20.86949229 43.15416831 -24 35 C-23 34 -23 34 -19.9375 33.9375 C-18.968125 33.958125 -17.99875 33.97875 -17 34 C-16.566875 35.216875 -16.13375 36.43375 -15.6875 37.6875 C-14.30343287 41.38709177 -12.84198062 45.15801938 -10 48 C-7.58517587 48.50059916 -7.58517587 48.50059916 -5 48 C-3.1375562 45.59141286 -3.1375562 45.59141286 -2 43 C-2.680625 42.773125 -3.36125 42.54625 -4.0625 42.3125 C-10.77885157 39.31157696 -13.95711975 36.87940283 -16.9375 30.125 C-19.62210059 22.86860434 -19.64943621 17.45823324 -17.05859375 10.21875 C-13.35789016 2.46229376 -8.67051018 -0.9947048 0 0 Z " fill="#356794" transform="translate(131,38)"/>
<path d="M0 0 C1.9453125 -0.29296875 1.9453125 -0.29296875 4.125 -0.1875 C5.40375 -0.125625 6.6825 -0.06375 8 0 C5.55333219 10.06050752 2.10543827 19.80163757 -1.25048828 29.58496094 C-2.23767485 32.46405415 -3.21886373 35.34513694 -4.19921875 38.2265625 C-7.31479774 47.35839146 -10.48699834 56.4678534 -13.796875 65.53125 C-14.07565491 66.3003772 -14.35443481 67.06950439 -14.6416626 67.86193848 C-16.18826693 72.05526676 -17.91461196 76.03603926 -20 80 C-22.31 80 -24.62 80 -27 80 C-27.495 80.99 -27.495 80.99 -28 82 C-32.04108383 81.81631437 -33.57739288 81.45597084 -36.375 78.4375 C-39.40558479 72.02664755 -38.07817454 67.06096389 -36.4375 60.4375 C-35.21848403 55.48668515 -34.54946192 51.90951349 -36 47 C-36.66 46.67 -37.32 46.34 -38 46 C-37.67922675 42.36456983 -37.09382181 41.09779856 -34.51171875 38.40625 C-31.15406076 34.50249948 -31.18791507 30.60474927 -31 25.625 C-30.68356587 17.31860415 -28.67223203 12.17016179 -23.15625 5.90625 C-18.65386756 2.08347245 -18.65386756 2.08347245 -15.0625 1.625 C-14.381875 1.74875 -13.70125 1.8725 -13 2 C-13.25 3.875 -13.25 3.875 -14 6 C-14.66128906 6.28536621 -15.32257812 6.57073242 -16.00390625 6.86474609 C-18.18373139 7.79946467 -18.18373139 7.79946467 -18.57421875 9.93603516 C-18.61160156 10.71253418 -18.64898438 11.4890332 -18.6875 12.2890625 C-18.74679688 13.14886719 -18.80609375 14.00867188 -18.8671875 14.89453125 C-18.91101563 15.79558594 -18.95484375 16.69664063 -19 17.625 C-19.44274118 26.49284547 -21.22590807 33.07108968 -27 40 C-26.505 40.639375 -26.01 41.27875 -25.5 41.9375 C-21.92860239 49.22910345 -24.47181827 56.70580452 -26.5390625 64.1796875 C-27.3611235 67.19676087 -27.3611235 67.19676087 -25 70 C-24.81509506 69.45559265 -24.63019012 68.9111853 -24.43968201 68.35028076 C-22.4770861 62.57250056 -20.51317987 56.79516686 -18.54858398 51.01806641 C-17.82007232 48.87527206 -17.09187124 46.73237209 -16.36401367 44.58935547 C-13.91857172 37.38973133 -11.46352622 30.19345566 -9 23 C-8.66301086 22.01362549 -8.32602173 21.02725098 -7.9788208 20.01098633 C-7.02322444 17.21918838 -6.06150392 14.42958338 -5.09765625 11.640625 C-4.6708683 10.39076813 -4.6708683 10.39076813 -4.23545837 9.11566162 C-3.96963455 8.3507843 -3.70381073 7.58590698 -3.42993164 6.79785156 C-3.08630333 5.8008725 -3.08630333 5.8008725 -2.73573303 4.78375244 C-2 3 -2 3 0 0 Z " fill="#5792C4" transform="translate(39,34)"/>
<path d="M0 0 C-0.25 1.875 -0.25 1.875 -1 4 C-1.66128906 4.28536621 -2.32257812 4.57073242 -3.00390625 4.86474609 C-5.18373139 5.79946467 -5.18373139 5.79946467 -5.57421875 7.93603516 C-5.61160156 8.71253418 -5.64898438 9.4890332 -5.6875 10.2890625 C-5.74679688 11.14886719 -5.80609375 12.00867188 -5.8671875 12.89453125 C-5.91101563 13.79558594 -5.95484375 14.69664063 -6 15.625 C-6.44274118 24.49284547 -8.22590807 31.07108968 -14 38 C-13.34 38.99 -12.68 39.98 -12 41 C-13.32 42.98 -14.64 44.96 -16 47 C-16.99 46.34 -17.98 45.68 -19 45 C-19 44.34 -19 43.68 -19 43 C-19.66 43 -20.32 43 -21 43 C-21 42.01 -21 41.02 -21 40 C-21.99 39.67 -22.98 39.34 -24 39 C-23.195625 38.20335937 -22.39125 37.40671875 -21.5625 36.5859375 C-18.21739146 32.56945154 -18.19113868 28.69017502 -18 23.625 C-17.68356587 15.31860415 -15.67223203 10.17016179 -10.15625 3.90625 C-4.57570715 -0.83194676 -4.57570715 -0.83194676 0 0 Z " fill="#548EC0" transform="translate(26,36)"/>
<path d="M0 0 C0.99 0 1.98 0 3 0 C3 0.99 3 1.98 3 3 C3.66 3 4.32 3 5 3 C5.99 4.485 5.99 4.485 7 6 C8.65 4.35 10.3 2.7 12 1 C15.03279976 7.06559952 12.51215101 14.69686605 10.75390625 20.8125 C10 23 10 23 9 24 C8.76712992 25.68183948 8.58735834 27.3712416 8.4375 29.0625 C8.35371094 29.98160156 8.26992187 30.90070313 8.18359375 31.84765625 C8.12300781 32.55792969 8.06242188 33.26820312 8 34 C7.34 34 6.68 34 6 34 C6.66 34.66 7.32 35.32 8 36 C8.99 35.505 8.99 35.505 10 35 C9.505 37.475 9.505 37.475 9 40 C4.95891617 39.81631437 3.42260712 39.45597084 0.625 36.4375 C-2.40558479 30.02664755 -1.07817454 25.06096389 0.5625 18.4375 C1.78151597 13.48668515 2.45053808 9.90951349 1 5 C0.34 4.67 -0.32 4.34 -1 4 C-0.67 2.68 -0.34 1.36 0 0 Z " fill="#649BCC" transform="translate(2,76)"/>
<path d="M0 0 C0.66 0 1.32 0 2 0 C1.731875 0.78375 1.46375 1.5675 1.1875 2.375 C-0.90783691 8.77129163 -2.8936038 14.94965416 -3.875 21.625 C-4.94854046 27.94099637 -7.47327196 32.54983947 -12.0625 37 C-14 38 -14 38 -18 38 C-18 36.35 -18 34.7 -18 33 C-17.01 33.33 -16.02 33.66 -15 34 C-12.11315695 29.91160606 -11.54235706 26.69720813 -11.125 21.75 C-10.45955941 15.25679272 -8.78990041 10.33768416 -5 5 C-6.32 5 -7.64 5 -9 5 C-9 4.01 -9 3.02 -9 2 C-6.03 2.33 -3.06 2.66 0 3 C0 2.01 0 1.02 0 0 Z " fill="#36648F" transform="translate(154,80)"/>
<path d="M0 0 C2.5 1.8125 2.5 1.8125 5 4 C5 4.99 5 5.98 5 7 C5.99 7.33 6.98 7.66 8 8 C8.4900095 14.37012354 7.10976806 18.96633324 4.95703125 24.9453125 C3.60468359 29.26178545 3.19919033 33.49829859 3 38 C-0.875 36.25 -0.875 36.25 -2 34 C-2.80822053 26.60676958 -1.54811527 20.61354697 1.125 13.7265625 C2.02164314 10.93255842 2.32004227 8.9103844 2 6 C1.34 5.34 0.68 4.68 0 4 C0 2.68 0 1.36 0 0 Z " fill="#4985B7" transform="translate(148,38)"/>
<path d="M0 0 C1.65 0.99 3.3 1.98 5 3 C4.7705204 5.71148262 4.517218 8.41719088 4.25 11.125 C4.188125 11.88554688 4.12625 12.64609375 4.0625 13.4296875 C3.5162311 18.71028683 2.28714267 21.81757864 -1 26 C-1.66 25.67 -2.32 25.34 -3 25 C-3 26.65 -3 28.3 -3 30 C-3.99 29.67 -4.98 29.34 -6 29 C-6.94921875 26.93359375 -6.94921875 26.93359375 -7.6875 24.4375 C-7.93886719 23.61121094 -8.19023437 22.78492187 -8.44921875 21.93359375 C-8.63097656 21.29550781 -8.81273437 20.65742187 -9 20 C-8.21625 19.46375 -7.4325 18.9275 -6.625 18.375 C-1.50268255 13.74052231 -1.21498196 6.54022206 0 0 Z " fill="#3A74A6" transform="translate(140,89)"/>
<path d="M0 0 C-0.25 1.875 -0.25 1.875 -1 4 C-1.66128906 4.28536621 -2.32257812 4.57073242 -3.00390625 4.86474609 C-5.18373139 5.79946467 -5.18373139 5.79946467 -5.57421875 7.93603516 C-5.61160156 8.71253418 -5.64898437 9.4890332 -5.6875 10.2890625 C-5.74679688 11.14886719 -5.80609375 12.00867188 -5.8671875 12.89453125 C-5.91101562 13.79558594 -5.95484375 14.69664063 -6 15.625 C-6.33923714 22.41972035 -6.92997284 28.32125951 -11 34 C-11.99 34.66 -12.98 35.32 -14 36 C-13.86722656 35.35675781 -13.73445312 34.71351562 -13.59765625 34.05078125 C-12.344719 27.63976657 -11.66088029 21.37261194 -11.34375 14.84765625 C-11.00699886 12.05797917 -10.31380111 10.43533864 -9 8 C-9.04125 7.154375 -9.0825 6.30875 -9.125 5.4375 C-9 3 -9 3 -7.3125 1.1875 C-4.65769564 -0.17577792 -2.94425817 -0.24535485 0 0 Z " fill="#73A7D5" transform="translate(26,36)"/>
<path d="M0 0 C1.98 0 3.96 0 6 0 C6 1.65 6 3.3 6 5 C6.66 5 7.32 5 8 5 C8.78020873 6.28281511 9.50012762 7.6026369 10.1875 8.9375 C12.29282887 12.51151638 12.54935253 12.88179739 16.8125 14 C17.864375 14 18.91625 14 20 14 C20.125 16.375 20.125 16.375 20 19 C18 21 18 21 15.1875 21.4375 C12 21 12 21 9.3125 19.0625 C6.77550731 15.70269887 5.84204579 12.93514244 4.87109375 8.890625 C4.58363281 8.26671875 4.29617187 7.6428125 4 7 C1.9771689 6.16921513 1.9771689 6.16921513 0 6 C0 4.02 0 2.04 0 0 Z " fill="#356693" transform="translate(40,71)"/>
<path d="M0 0 C3 1.5 3 1.5 5 3 C5.33 2.34 5.66 1.68 6 1 C8.3125 0.6875 8.3125 0.6875 11 1 C12.8125 3.5 12.8125 3.5 14 6 C12.02 7.32 10.04 8.64 8 10 C7.67 9.01 7.34 8.02 7 7 C6.34 7 5.68 7 5 7 C5 6.34 5 5.68 5 5 C-2.55466441 4.31597606 -6.16745473 5.13954561 -12 10 C-12.66 10 -13.32 10 -14 10 C-14.33 8.68 -14.66 7.36 -15 6 C-10.12110077 0.87715581 -7.13700798 -1.03601729 0 0 Z " fill="#334F6E" transform="translate(131,38)"/>
<path d="M0 0 C1.90066748 1.42550061 3.80031903 2.85210959 5.6953125 4.28515625 C7.19360271 5.39998575 8.70873034 6.49265402 10.2421875 7.55859375 C13.32424148 9.73183694 15.62324057 11.39138861 17.625 14.625 C18.07357721 17.46598899 17.57452144 18.63821784 16 21 C15.38125 20.13375 14.7625 19.2675 14.125 18.375 C11.0838847 14.67658313 7.3485964 12.60671343 3.20703125 10.296875 C1 9 1 9 -1 7 C-0.625 3.375 -0.625 3.375 0 0 Z " fill="#335171" transform="translate(52,53)"/>
<path d="M0 0 C3.3956697 -0.08745946 6.79104773 -0.14054444 10.1875 -0.1875 C11.14720703 -0.21263672 12.10691406 -0.23777344 13.09570312 -0.26367188 C22.12606235 -0.35741263 22.12606235 -0.35741263 26 3 C26.8125 5.1875 26.8125 5.1875 27 7 C26.45182617 6.8460376 25.90365234 6.6920752 25.33886719 6.53344727 C22.74181676 5.94111374 20.23271639 5.6860597 17.578125 5.46484375 C16.04091797 5.33432617 16.04091797 5.33432617 14.47265625 5.20117188 C13.40917969 5.11416016 12.34570312 5.02714844 11.25 4.9375 C10.17105469 4.84662109 9.09210938 4.75574219 7.98046875 4.66210938 C5.32054252 4.43848726 2.66040057 4.21789404 0 4 C0 2.68 0 1.36 0 0 Z " fill="#345070" transform="translate(79,38)"/>
<path d="M0 0 C0.680625 0.474375 1.36125 0.94875 2.0625 1.4375 C2.3925 0.4475 2.7225 -0.5425 3.0625 -1.5625 C4.3825 -1.2325 5.7025 -0.9025 7.0625 -0.5625 C7.0625 1.7475 7.0625 4.0575 7.0625 6.4375 C6.7325 5.4475 6.4025 4.4575 6.0625 3.4375 C4.7425 3.4375 3.4225 3.4375 2.0625 3.4375 C1.4025 4.7575 0.7425 6.0775 0.0625 7.4375 C-0.618125 6.4475 -0.618125 6.4475 -1.3125 5.4375 C-4.78978116 2.78814293 -7.23901195 2.99741084 -11.5 3.00390625 C-14.35121184 3.51109297 -15.77799671 4.55293347 -17.9375 6.4375 C-18.5975 6.1075 -19.2575 5.7775 -19.9375 5.4375 C-14.3170631 -1.94935992 -9.04392419 -4.81059797 0 0 Z " fill="#36577A" transform="translate(65.9375,38.5625)"/>
<path d="M0 0 C1.46516529 4.57656237 -0.0673892 7.98457344 -1.640625 12.34375 C-1.92347351 13.14985718 -2.20632202 13.95596436 -2.4977417 14.78649902 C-3.0980183 16.48952888 -3.70356008 18.19071072 -4.31396484 19.89013672 C-5.24497393 22.48598627 -6.15689767 25.0879564 -7.06640625 27.69140625 C-7.65251977 29.34675331 -8.23972363 31.00171479 -8.828125 32.65625 C-9.23614349 33.82045471 -9.23614349 33.82045471 -9.65240479 35.00817871 C-11.01873981 38.78407601 -12.30452676 41.93852477 -15 45 C-14.39236516 38.31601678 -12.24073105 32.2994137 -10 26 C-9.75121094 25.29746094 -9.50242187 24.59492187 -9.24609375 23.87109375 C-7.40025171 18.8187604 -5.29018561 13.87788147 -3.18359375 8.9296875 C-1.99450226 5.98639173 -0.97262841 3.02097489 0 0 Z " fill="#98C2E9" transform="translate(34,67)"/>
<path d="M0 0 C0.66 0 1.32 0 2 0 C2.57351015 10.13201256 -0.61071711 18.97634735 -5 28 C-5.33 28 -5.66 28 -6 28 C-6.17374974 22.87438279 -5.92131317 19.74677371 -4 15 C-3.82313254 13.33634047 -3.68064922 11.66885766 -3.5625 10 C-3.22605345 5.97465731 -2.66277325 3.1953279 0 0 Z " fill="#9CC4EA" transform="translate(13,80)"/>
<path d="M0 0 C1.65 0.99 3.3 1.98 5 3 C4.34 7.95 3.68 12.9 3 18 C2.34 18 1.68 18 1 18 C1 17.34 1 16.68 1 16 C0.34 16 -0.32 16 -1 16 C-2.79570284 13.33874255 -3.03345719 12.21888938 -2.5390625 8.984375 C-2.23742187 7.91703125 -1.93578125 6.8496875 -1.625 5.75 C-1.32851562 4.67234375 -1.03203125 3.5946875 -0.7265625 2.484375 C-0.48679688 1.66453125 -0.24703125 0.8446875 0 0 Z " fill="#8FBBE3" transform="translate(140,89)"/>
<path d="M0 0 C0.598125 0.309375 1.19625 0.61875 1.8125 0.9375 C4.3763939 2.18281989 6.18541165 2.15636602 9 2 C9.125 4.375 9.125 4.375 9 7 C7 9 7 9 4.125 9.375 C1 9 1 9 -1.4375 7.25 C-3 5 -3 5 -2.875 2.8125 C-2 1 -2 1 0 0 Z " fill="#32567A" transform="translate(51,83)"/>
<path d="M0 0 C1.485 0.99 1.485 0.99 3 2 C3.74159218 8.80675676 3.5579442 16.30083992 2 23 C1.34 23.33 0.68 23.66 0 24 C-0.90901939 20.95157135 -1.06173367 18.40338364 -0.87890625 15.234375 C-0.83056641 14.34492187 -0.78222656 13.45546875 -0.73242188 12.5390625 C-0.67634766 11.61867188 -0.62027344 10.69828125 -0.5625 9.75 C-0.48418945 8.34621094 -0.48418945 8.34621094 -0.40429688 6.9140625 C-0.27493175 4.60901113 -0.13997966 2.30442711 0 0 Z " fill="#669DCE" transform="translate(107,77)"/>
<path d="M0 0 C2.64 0 5.28 0 8 0 C4.92482916 11.52164009 4.92482916 11.52164009 3 17 C2.34 16.67 1.68 16.34 1 16 C1.99 12.04 2.98 8.08 4 4 C2.35 4 0.7 4 -1 4 C-0.67 2.68 -0.34 1.36 0 0 Z " fill="#386C99" transform="translate(39,34)"/>
<path d="M0 0 C2.5 1.3125 2.5 1.3125 5 4 C5.45251957 7.70001295 5.28783441 11.29013428 5 15 C1.125 13.25 1.125 13.25 0 11 C-0.07033769 9.12620395 -0.0843022 7.24998898 -0.0625 5.375 C-0.05347656 4.37210937 -0.04445312 3.36921875 -0.03515625 2.3359375 C-0.02355469 1.56507812 -0.01195312 0.79421875 0 0 Z " fill="#6299C9" transform="translate(146,61)"/>
<path d="M0 0 C0.66 0.33 1.32 0.66 2 1 C3.25433458 4.76300374 3.10695422 8.27210909 3.0625 12.1875 C3.05798828 12.93708984 3.05347656 13.68667969 3.04882812 14.45898438 C3.03706354 16.30602383 3.01912865 18.15302213 3 20 C-0.98952687 14.0157097 -1.71335817 9.19097927 -0.5 2.0625 C-0.335 1.381875 -0.17 0.70125 0 0 Z " fill="#6C9FCD" transform="translate(113,50)"/>
<path d="M0 0 C0.33 2.31 0.66 4.62 1 7 C-2.04794934 7.93131785 -3.42050674 8.29757762 -6.3125 6.8125 C-8 5 -8 5 -8 1 C-2.25 0 -2.25 0 0 0 Z " fill="#334D6B" transform="translate(128,86)"/>
<path d="M0 0 C0.125 2.375 0.125 2.375 0 5 C-2 7 -2 7 -5.625 7.125 C-6.73875 7.08375 -7.8525 7.0425 -9 7 C-9 5.35 -9 3.7 -9 2 C-3.375 0 -3.375 0 0 0 Z " fill="#335476" transform="translate(97,61)"/>
<path d="M0 0 C0.33 0 0.66 0 1 0 C1.49155247 8.06510168 0.04937325 15.21726112 -2 23 C-2.33 22.34 -2.66 21.68 -3 21 C-3.66 20.67 -4.32 20.34 -5 20 C-4.731875 19.113125 -4.46375 18.22625 -4.1875 17.3125 C-2.54792017 11.60345946 -1.3065124 5.79220498 0 0 Z " fill="#659CCD" transform="translate(78,65)"/>
<path d="M0 0 C5.29315952 1.48870112 9.26907096 5.08601135 13 9 C13.33 9.99 13.66 10.98 14 12 C10.97896025 10.54824177 8.13821115 8.92785042 5.3125 7.125 C4.52488281 6.63257812 3.73726563 6.14015625 2.92578125 5.6328125 C0.75386568 3.79131005 0.35462229 2.77687284 0 0 Z " fill="#335071" transform="translate(124,59)"/>
<path d="M0 0 C0.66 0.33 1.32 0.66 2 1 C2 1.99 2 2.98 2 4 C2.66 4 3.32 4 4 4 C3.62952882 6.74148672 3.31412056 8.58593199 1.625 10.8125 C0 12 0 12 -3 12 C-2.68950274 10.56206608 -2.3765224 9.1246682 -2.0625 7.6875 C-1.88847656 6.88699219 -1.71445313 6.08648437 -1.53515625 5.26171875 C-1 3 -1 3 0 0 Z " fill="#3878AB" transform="translate(150,49)"/>
<path d="M0 0 C0.66 0 1.32 0 2 0 C2 0.66 2 1.32 2 2 C2.66 2 3.32 2 4 2 C4 2.66 4 3.32 4 4 C4.66 4 5.32 4 6 4 C5.34 5.98 4.68 7.96 4 10 C3.01 10 2.02 10 1 10 C0.87625 9.030625 0.7525 8.06125 0.625 7.0625 C0.41875 6.051875 0.2125 5.04125 0 4 C-0.66 3.67 -1.32 3.34 -2 3 C-1.34 2.01 -0.68 1.02 0 0 Z " fill="#669CCC" transform="translate(137,103)"/>
<path d="M0 0 C2.99324263 1.0975223 3.84610901 1.67682892 5.25 4.625 C5.4975 5.40875 5.745 6.1925 6 7 C3.69 7 1.38 7 -1 7 C-1.625 4.625 -1.625 4.625 -2 2 C-1.34 1.34 -0.68 0.68 0 0 Z " fill="#324F70" transform="translate(148,76)"/>
<path d="M0 0 C1.74084364 4.12919619 0.12679467 7.6902315 -1.25 11.6875 C-1.46785156 12.37650391 -1.68570313 13.06550781 -1.91015625 13.77539062 C-2.578125 15.76171875 -2.578125 15.76171875 -4 19 C-4.99 19.33 -5.98 19.66 -7 20 C-5.07443364 13.14381674 -2.7527517 6.56747868 0 0 Z " fill="#8DBAE4" transform="translate(34,67)"/>
<path d="M0 0 C2.125 0.9375 2.125 0.9375 4 2 C2.68 4.31 1.36 6.62 0 9 C-1.32 7.68 -2.64 6.36 -4 5 C-2.25 1.125 -2.25 1.125 0 0 Z " fill="#386D9B" transform="translate(10,74)"/>
<path d="M0 0 C2.5 1.8125 2.5 1.8125 5 4 C5 4.99 5 5.98 5 7 C5.99 7.33 6.98 7.66 8 8 C8 9.98 8 11.96 8 14 C7.731875 13.360625 7.46375 12.72125 7.1875 12.0625 C6.11332248 9.66868314 6.11332248 9.66868314 3 9 C0.53447933 5.62132353 0 4.29441798 0 0 Z " fill="#5B93C4" transform="translate(148,38)"/>
<path d="M0 0 C0.66 0 1.32 0 2 0 C2 2.64 2 5.28 2 8 C1.01 8.33 0.02 8.66 -1 9 C-1.66 9.99 -2.32 10.98 -3 12 C-3.29162929 7.04230204 -3.12940055 3.97193147 0 0 Z " fill="#89B6E0" transform="translate(13,80)"/>
<path d="M0 0 C1.67542976 0.28604898 3.34385343 0.61781233 5 1 C5.33 2.32 5.66 3.64 6 5 C4.02 5.33 2.04 5.66 0 6 C-0.38218767 4.34385343 -0.71395102 2.67542976 -1 1 C-0.67 0.67 -0.34 0.34 0 0 Z " fill="#33577B" transform="translate(110,72)"/>
<path d="M0 0 C0.33 0 0.66 0 1 0 C1.24794402 6.5705166 0.32388229 12.56971459 -1 19 C-1.33 19 -1.66 19 -2 19 C-3.69843394 12.20626425 -1.92258516 6.61499641 0 0 Z " fill="#4C88BB" transform="translate(81,51)"/>
<path d="M0 0 C2.86402446 1.71841468 3.92902938 2.84116098 5.3125 5.9375 C5.97095435 8.87061485 6.05902319 10.2465397 5 13 C1.68441485 8.61487125 0.45003347 5.62541841 0 0 Z " fill="#699ECE" transform="translate(133,53)"/>
<path d="M0 0 C1.98 0 3.96 0 6 0 C5.67 1.98 5.34 3.96 5 6 C3.35 6 1.7 6 0 6 C0 4.02 0 2.04 0 0 Z " fill="#355E86" transform="translate(40,71)"/>
<path d="M0 0 C0.83414558 2.38480081 1.11903995 3.63319086 0.328125 6.0703125 C-0.02765625 6.74835938 -0.3834375 7.42640625 -0.75 8.125 C-1.09546875 8.80820313 -1.4409375 9.49140625 -1.796875 10.1953125 C-3 12 -3 12 -6 14 C-5.21302675 10.58978257 -4.12880057 7.31114834 -3 4 C-2.34 4 -1.68 4 -1 4 C-0.67 2.68 -0.34 1.36 0 0 Z " fill="#93BFE7" transform="translate(18,58)"/>
<path d="M0 0 C2 1.3125 2 1.3125 4 3 C4 3.99 4 4.98 4 6 C3.49984375 5.84660156 2.9996875 5.69320312 2.484375 5.53515625 C-0.90327766 4.80542604 -4.29961519 4.63643523 -7.75 4.4375 C-8.44738281 4.39431641 -9.14476563 4.35113281 -9.86328125 4.30664062 C-11.57531922 4.20110404 -13.28763561 4.1001009 -15 4 C-15 3.67 -15 3.34 -15 3 C-10.05 3 -5.1 3 0 3 C0 2.01 0 1.02 0 0 Z " fill="#345E87" transform="translate(102,39)"/>
<path d="M0 0 C1.32 0.33 2.64 0.66 4 1 C4.33 3.97 4.66 6.94 5 10 C4.67 9.34 4.34 8.68 4 8 C3.01 7.67 2.02 7.34 1 7 C0.67 4.69 0.34 2.38 0 0 Z " fill="#345D86" transform="translate(101,86)"/>
<path d="M0 0 C0.66 0.66 1.32 1.32 2 2 C-1.63 2.33 -5.26 2.66 -9 3 C-9 2.01 -9 1.02 -9 0 C-5.88135455 -1.55932272 -3.33704665 -0.65549131 0 0 Z " fill="#33455C" transform="translate(132,40)"/>
<path d="M0 0 C2.59487555 1.29743778 3.02269781 2.29362471 4 5 C3.625 7.75 3.625 7.75 3 10 C2.01 9.67 1.02 9.34 0 9 C0 6.03 0 3.06 0 0 Z " fill="#355576" transform="translate(10,100)"/>
<path d="M0 0 C0.33 0 0.66 0 1 0 C1 3.3 1 6.6 1 10 C0.01 10.495 0.01 10.495 -1 11 C-1.22174933 9.54364629 -1.42698698 8.08477044 -1.625 6.625 C-1.74101563 5.81289062 -1.85703125 5.00078125 -1.9765625 4.1640625 C-1.98429687 3.44992188 -1.99203125 2.73578125 -2 2 C-1.34 1.34 -0.68 0.68 0 0 Z " fill="#94BFE6" transform="translate(108,90)"/>
<path d="M0 0 C1.65 1.65 3.3 3.3 5 5 C5 4.34 5 3.68 5 3 C5.66 3.33 6.32 3.66 7 4 C6.34 5.32 5.68 6.64 5 8 C3.125 7.6875 3.125 7.6875 1 7 C-1 4 -1 4 -0.625 1.8125 C-0.41875 1.214375 -0.2125 0.61625 0 0 Z " fill="#4884B7" transform="translate(141,84)"/>
<path d="M0 0 C2 1 2 1 2.8515625 3.28515625 C3.10679687 4.20167969 3.36203125 5.11820312 3.625 6.0625 C3.88539063 6.98160156 4.14578125 7.90070313 4.4140625 8.84765625 C4.60742188 9.55792969 4.80078125 10.26820312 5 11 C4.01 10.67 3.02 10.34 2 10 C1.05078125 7.93359375 1.05078125 7.93359375 0.3125 5.4375 C0.06113281 4.61121094 -0.19023437 3.78492187 -0.44921875 2.93359375 C-0.63097656 2.29550781 -0.81273437 1.65742187 -1 1 C-0.67 0.67 -0.34 0.34 0 0 Z " fill="#80AFDA" transform="translate(132,108)"/>
<path d="M0 0 C0.33 0.66 0.66 1.32 1 2 C1.66 2.33 2.32 2.66 3 3 C2.01 5.64 1.02 8.28 0 11 C-0.33 11 -0.66 11 -1 11 C-1.125 3.375 -1.125 3.375 0 0 Z " fill="#8CB7E0" transform="translate(8,97)"/>
<path d="M0 0 C1.65 0.99 3.3 1.98 5 3 C4.67 5.64 4.34 8.28 4 11 C0.85041169 7.57653445 0.43820891 4.55737263 0 0 Z " fill="#78A9D6" transform="translate(140,89)"/>
<path d="M0 0 C0.33 0 0.66 0 1 0 C1.18451025 10.55808656 1.18451025 10.55808656 0 15 C-0.33 15 -0.66 15 -1 15 C-2.18609365 9.3067505 -1.66251802 5.57432514 0 0 Z " fill="#5893C6" transform="translate(78,65)"/>
<path d="M0 0 C0.7425 0.0825 1.485 0.165 2.25 0.25 C2.25 0.91 2.25 1.57 2.25 2.25 C-1.1852048 4.54013653 -2.735331 4.42842973 -6.75 4.25 C-3.42692308 0.31153846 -3.42692308 0.31153846 0 0 Z " fill="#375B80" transform="translate(23.75,35.75)"/>
<path d="M0 0 C1.98 0.66 3.96 1.32 6 2 C6 2.66 6 3.32 6 4 C5.01 4 4.02 4 3 4 C3 4.66 3 5.32 3 6 C1.68 5.34 0.36 4.68 -1 4 C-0.67 2.68 -0.34 1.36 0 0 Z " fill="#3472A4" transform="translate(143,83)"/>
<path d="M0 0 C0.33 0.99 0.66 1.98 1 3 C-0.8125 3.625 -0.8125 3.625 -3 4 C-3.99 3.34 -4.98 2.68 -6 2 C-6 1.34 -6 0.68 -6 0 C-3 -1 -3 -1 0 0 Z " fill="#335375" transform="translate(55,88)"/>
<path d="M0 0 C0.66 0.33 1.32 0.66 2 1 C2.625 4.0625 2.625 4.0625 3 7 C1.68 7.99 0.36 8.98 -1 10 C-0.67 6.7 -0.34 3.4 0 0 Z " fill="#528FC2" transform="translate(113,50)"/>
<path d="M0 0 C1.32 0.66 2.64 1.32 4 2 C4 3.65 4 5.3 4 7 C3.01 7.495 3.01 7.495 2 8 C1.87625 7.030625 1.7525 6.06125 1.625 5.0625 C1.41875 4.051875 1.2125 3.04125 1 2 C0.34 1.67 -0.32 1.34 -1 1 C-0.67 0.67 -0.34 0.34 0 0 Z " fill="#669BCA" transform="translate(129,82)"/>
<path d="M0 0 C3.24208567 0.35049575 4.61527704 0.56221181 6.8125 3.0625 C7.204375 3.701875 7.59625 4.34125 8 5 C4.62537285 4.45276317 2.91765 3.9451 0 2 C0 1.34 0 0.68 0 0 Z " fill="#345273" transform="translate(149,38)"/>
<path d="M0 0 C0.99 0 1.98 0 3 0 C3 1.98 3 3.96 3 6 C2.01 6.33 1.02 6.66 0 7 C0 4.69 0 2.38 0 0 Z " fill="#335C84" transform="translate(71,86)"/>
<path d="M0 0 C0.66 0.33 1.32 0.66 2 1 C0.515 3.475 0.515 3.475 -1 6 C-1.99 5.67 -2.98 5.34 -4 5 C-2.25 1.125 -2.25 1.125 0 0 Z " fill="#335274" transform="translate(10,74)"/>
<path d="M0 0 C1.5625 1.6875 1.5625 1.6875 3 4 C2.6875 6.75 2.6875 6.75 2 9 C0.68 7.68 -0.64 6.36 -2 5 C-1.34 4.67 -0.68 4.34 0 4 C0 2.68 0 1.36 0 0 Z " fill="#35618C" transform="translate(67,65)"/>
<path d="M0 0 C-4.625 4 -4.625 4 -8 4 C-8.33 3.01 -8.66 2.02 -9 1 C-2.25 -1.125 -2.25 -1.125 0 0 Z " fill="#689FCE" transform="translate(26,39)"/>
<path d="M0 0 C2.31 0 4.62 0 7 0 C6.01 1.485 6.01 1.485 5 3 C1.875 3.1875 1.875 3.1875 -1 3 C-0.67 2.01 -0.34 1.02 0 0 Z " fill="#334E6C" transform="translate(39,34)"/>
<path d="M0 0 C0.33 0.99 0.66 1.98 1 3 C1.66 3 2.32 3 3 3 C2.38722388 5.96175123 1.74627478 7.38058783 0 10 C-0.74926071 6.33694766 -1.2380014 3.57644848 0 0 Z " fill="#3876A9" transform="translate(45,73)"/>
<path d="M0 0 C0.66 0 1.32 0 2 0 C2 0.99 2 1.98 2 3 C2.66 3 3.32 3 4 3 C3.67 4.65 3.34 6.3 3 8 C2.34 7.67 1.68 7.34 1 7 C0.59270772 4.67843403 0.25561323 2.3431213 0 0 Z " fill="#3B77A8" transform="translate(114,47)"/>
<path d="M0 0 C0.99 0.33 1.98 0.66 3 1 C1.68 3.31 0.36 5.62 -1 8 C-1.33 8 -1.66 8 -2 8 C-1.125 1.125 -1.125 1.125 0 0 Z " fill="#86B4DF" transform="translate(18,43)"/>
<path d="M0 0 C0.66 0 1.32 0 2 0 C2.1875 2.375 2.1875 2.375 2 5 C1.01 5.66 0.02 6.32 -1 7 C-1.04254356 5.00045254 -1.04080783 2.99958364 -1 1 C-0.67 0.67 -0.34 0.34 0 0 Z " fill="#34638F" transform="translate(58,85)"/>
<path d="M0 0 C1.5 1.375 1.5 1.375 3 3 C3 3.66 3 4.32 3 5 C1.02 5.99 1.02 5.99 -1 7 C-0.67 4.69 -0.34 2.38 0 0 Z " fill="#345D85" transform="translate(52,53)"/>
</svg>
