<?xml version="1.0" encoding="UTF-8"?>
<svg version="1.1" xmlns="http://www.w3.org/2000/svg" width="180" height="180">
<path d="M0 0 C3.4375 2 3.4375 2 6 4 C6.33 3.34 6.66 2.68 7 2 C8.98 2 10.96 2 13 2 C13.08674429 6.45821166 13.14030513 10.91620804 13.1875 15.375 C13.21263672 16.64601563 13.23777344 17.91703125 13.26367188 19.2265625 C13.27333984 20.43828125 13.28300781 21.65 13.29296875 22.8984375 C13.3086792 24.01911621 13.32438965 25.13979492 13.34057617 26.29443359 C13.17199097 27.63368896 13.17199097 27.63368896 13 29 C10 31 10 31 7 31 C7.495 31.969375 7.99 32.93875 8.5 33.9375 C11.17533609 40.8582051 10.22360047 48.71228109 10 56 C11.32 56 12.64 56 14 56 C14.23783203 54.68515625 14.23783203 54.68515625 14.48046875 53.34375 C16.77822624 40.85207391 19.37731554 28.42701051 22 16 C21.01 16 20.02 16 19 16 C18.94527912 14.60461746 18.90688462 13.20859103 18.875 11.8125 C18.85179687 11.03519531 18.82859375 10.25789063 18.8046875 9.45703125 C19.02733434 6.656134 19.91545843 4.57625532 21 2 C24.70806596 1.88325295 28.4156554 1.81256726 32.125 1.75 C33.17171875 1.71648438 34.2184375 1.68296875 35.296875 1.6484375 C41.5400397 1.5694101 45.30563763 1.72477713 50 6 C54.91933638 11.4323153 54.52356875 18.57086913 54.32421875 25.5 C53.92407982 29.81957205 53.20966863 32.29091337 51 36 C50.38125 37.0725 49.7625 38.145 49.125 39.25 C46.95657457 42.05619761 45.1460165 43.42699175 42 45 C42.39695637 46.62992692 42.81832493 48.25392235 43.25 49.875 C43.48203125 50.77992187 43.7140625 51.68484375 43.953125 52.6171875 C45.22887908 55.52095612 46.24425169 55.67192852 49 57 C51.05881548 62.70315553 49.72845557 68.40793787 48 74 C44.37 74 40.74 74 37 74 C35.49755898 70.99511796 34.65293303 69.06126063 33.96484375 65.91796875 C33.79533203 65.15033203 33.62582031 64.38269531 33.45117188 63.59179688 C33.28166016 62.79837891 33.11214844 62.00496094 32.9375 61.1875 C32.76412109 60.40568359 32.59074219 59.62386719 32.41210938 58.81835938 C31.41093609 54.22677154 30.60356034 49.66048139 30 45 C29.34 45 28.68 45 28 45 C27.93941406 45.62648437 27.87882812 46.25296875 27.81640625 46.8984375 C27.73261719 47.71570313 27.64882812 48.53296875 27.5625 49.375 C27.48128906 50.18710938 27.40007812 50.99921875 27.31640625 51.8359375 C27 54 27 54 26 56 C26.99 56.33 27.98 56.66 29 57 C29.02763357 58.35404497 29.04667422 59.70826555 29.0625 61.0625 C29.07410156 61.81660156 29.08570313 62.57070312 29.09765625 63.34765625 C28.97851072 66.58364877 28.45794854 69.79436022 28 73 C21.4 73 14.8 73 8 73 C8 69.37 8 65.74 8 62 C7.443125 63.0725 6.88625 64.145 6.3125 65.25 C3.93531257 69.32753676 1.68156494 72.26774592 -3.07421875 73.56640625 C-10.03324933 74.68883054 -14.17690317 72.88206455 -20 69 C-20.66 70.32 -21.32 71.64 -22 73 C-23.65 73 -25.3 73 -27 73 C-27.13483714 66.19821545 -26.94944048 59.41827392 -26.625 52.625 C-26.59414307 51.85236816 -26.56328613 51.07973633 -26.53149414 50.28369141 C-26.31412229 46.12877082 -25.86307977 42.8018945 -24 39 C-22.35 39 -20.7 39 -19 39 C-19.495 37.88625 -19.99 36.7725 -20.5 35.625 C-23.41179984 27.71159182 -22.52165649 20.94806627 -19.15625 13.33984375 C-17.57042784 10.13069688 -15.86136671 7.05795959 -14 4 C-13.34 4 -12.68 4 -12 4 C-12 3.34 -12 2.68 -12 2 C-7.85747753 -0.00849574 -4.5849842 -0.48262992 0 0 Z M-8 16 C-8.99 17.485 -8.99 17.485 -10 19 C-5.70024145 23.87305969 -0.62775683 26.8200442 5 30 C3.8483729 23.92778436 2.63442912 20.21311738 -2 16 C-5.1292764 15.24862832 -5.1292764 15.24862832 -8 16 Z M33 18 C32.67 21.63 32.34 25.26 32 29 C35.43793339 28.81870185 35.43793339 28.81870185 39 28 C41.28830211 25.21424091 41.28510306 22.51627102 41 19 C39.81575674 17.58422523 39.81575674 17.58422523 36.4375 17.9375 C34.7359375 17.9684375 34.7359375 17.9684375 33 18 Z M-16 42 C-14.3040692 48.41438717 -12.62304105 52.25130596 -7 56 C-4.71602968 55.65394389 -3.06590963 55.03295481 -1 54 C-1.96196194 50.28682693 -2.78435077 49.14330418 -6.0390625 46.98046875 C-7.22635488 46.36703435 -8.42207594 45.7696844 -9.625 45.1875 C-10.23601563 44.87619141 -10.84703125 44.56488281 -11.4765625 44.24414062 C-12.97731946 43.48203748 -14.48776998 42.7390758 -16 42 Z " fill="#3C7CAF" transform="translate(69,41)"/>
<path d="M0 0 C2.38657268 1.11278686 3.96278776 2.28445285 6 4 C6 3.01 6 2.02 6 1 C11.35315021 0.51334998 11.35315021 0.51334998 14.19238281 2.64941406 C16.49841791 5.64813177 16.40068232 7.1221887 16.171875 10.859375 C16.08486328 12.53193359 16.08486328 12.53193359 15.99609375 14.23828125 C15.91488281 15.39714844 15.83367187 16.55601563 15.75 17.75 C15.68425781 18.92433594 15.61851562 20.09867188 15.55078125 21.30859375 C15.3858107 24.20736191 15.20154502 27.10358263 15 30 C11.04 30.495 11.04 30.495 7 31 C4.36177976 27.89621148 3.29634269 25.18537076 2.3125 21.25 C2.06113281 20.26515625 1.80976563 19.2803125 1.55078125 18.265625 C1.27814453 17.14414062 1.27814453 17.14414062 1 16 C-1.31 16.33 -3.62 16.66 -6 17 C-6.33 18.98 -6.66 20.96 -7 23 C-6.35933594 23.38929687 -5.71867187 23.77859375 -5.05859375 24.1796875 C2.28909126 28.9321395 8.25352974 34.25936008 10.87109375 42.86328125 C11.35946692 45.24452144 11.7480549 47.58338375 12 50 C12.61875 48.88625 12.61875 48.88625 13.25 47.75 C14.93745618 45.09828315 16.70872089 43.13325986 19 41 C18.505 40.154375 18.01 39.30875 17.5 38.4375 C14.62860202 31.85721297 16.23418492 26.37363959 18.5 19.9375 C20.14178004 15.24733377 21.53875677 11.03587924 21 6 C20.34 5.34 19.68 4.68 19 4 C19 2.68 19 1.36 19 0 C24.03191165 0.24545911 26.86366089 1.86805463 30.51391602 5.12304688 C33.21273306 8.53170556 32.90997477 12.00240087 32.6875 16.1875 C32.66623047 17.02885498 32.64496094 17.87020996 32.62304688 18.73706055 C32.36761585 24.55651868 31.24509598 29.46908933 28.8984375 34.828125 C27.72578545 37.66288387 27.53483817 39.9764481 28 43 C28.66 43.66 29.32 44.32 30 45 C30.4375 47.375 30.4375 47.375 30 50 C29.236875 50.598125 28.47375 51.19625 27.6875 51.8125 C21.47044763 56.87289147 21.42496734 65.14978466 20.625 72.6328125 C19.56403056 78.34878536 16.89325304 82.72998054 13 87 C12.34 87 11.68 87 11 87 C11 87.66 11 88.32 11 89 C7.535 89.495 7.535 89.495 4 90 C3.29773859 88.75823305 2.61370891 87.50614401 1.9375 86.25 C1.36322266 85.20585937 1.36322266 85.20585937 0.77734375 84.140625 C-0.1312406 81.63859372 0.11663163 80.4667645 1 78 C1.99 78 2.98 78 4 78 C4.309375 77.21625 4.61875 76.4325 4.9375 75.625 C6 73 6 73 7 71 C7.039992 69.00039988 7.04346799 66.99952758 7 65 C6.236875 65.94875 5.47375 66.8975 4.6875 67.875 C2.26470787 70.88711995 0.28354674 72.82404482 -3.70703125 73.37109375 C-13.12057649 73.57238969 -13.12057649 73.57238969 -16.75 70.5 C-17.86375 69.2625 -17.86375 69.2625 -19 68 C-19.66 69.32 -20.32 70.64 -21 72 C-22.98 72 -24.96 72 -27 72 C-28.90961848 63.58858526 -28.05830807 54.86279633 -27.5625 46.3125 C-27.52334473 45.60504639 -27.48418945 44.89759277 -27.44384766 44.16870117 C-27.12106614 39.12106614 -27.12106614 39.12106614 -26 38 C-23.0625 37.75 -23.0625 37.75 -20 38 C-17.68193681 41.47709478 -16.96891302 44.60777378 -15.9765625 48.625 C-14.80018983 51.48593834 -13.67080695 52.48521397 -11 54 C-7.8596006 54.17110449 -7.8596006 54.17110449 -5 53 C-3.54708727 50.53744315 -3.54708727 50.53744315 -3 48 C-3.66 47.79375 -4.32 47.5875 -5 47.375 C-11.64866332 44.32769598 -16.29081175 40.66894955 -19.30859375 33.9296875 C-22.11118377 26.10776959 -22.2103909 16.82142657 -19.16015625 9.046875 C-14.82796417 1.40354622 -8.65887004 -1.89051996 0 0 Z M8 61 C9 63 9 63 9 63 Z " fill="#346897" transform="translate(148,43)"/>
<path d="M0 0 C3.4375 2 3.4375 2 6 4 C6.33 3.34 6.66 2.68 7 2 C8.98 2 10.96 2 13 2 C13.08674429 6.45821166 13.14030513 10.91620804 13.1875 15.375 C13.21263672 16.64601563 13.23777344 17.91703125 13.26367188 19.2265625 C13.27333984 20.43828125 13.28300781 21.65 13.29296875 22.8984375 C13.3086792 24.01911621 13.32438965 25.13979492 13.34057617 26.29443359 C13.17199097 27.63368896 13.17199097 27.63368896 13 29 C10 31 10 31 7 31 C7.48895752 32.15048828 7.97791504 33.30097656 8.48168945 34.48632812 C10.11056724 38.84628323 10.39470853 42.60337044 10.29296875 47.21875 C10.28872391 47.96209595 10.28447906 48.70544189 10.28010559 49.47131348 C10.26349081 51.81459858 10.22587454 54.15698077 10.1875 56.5 C10.17243078 58.10154996 10.15874632 59.70311358 10.14648438 61.3046875 C10.11364426 65.20346583 10.06198563 69.10158056 10 73 C9.34 73 8.68 73 8 73 C8 69.37 8 65.74 8 62 C7.443125 63.0725 6.88625 64.145 6.3125 65.25 C3.93531257 69.32753676 1.68156494 72.26774592 -3.07421875 73.56640625 C-10.03324933 74.68883054 -14.17690317 72.88206455 -20 69 C-20.66 70.32 -21.32 71.64 -22 73 C-23.65 73 -25.3 73 -27 73 C-27.13483714 66.19821545 -26.94944048 59.41827392 -26.625 52.625 C-26.59414307 51.85236816 -26.56328613 51.07973633 -26.53149414 50.28369141 C-26.31412229 46.12877082 -25.86307977 42.8018945 -24 39 C-22.35 39 -20.7 39 -19 39 C-19.495 37.88625 -19.99 36.7725 -20.5 35.625 C-23.41179984 27.71159182 -22.52165649 20.94806627 -19.15625 13.33984375 C-17.57042784 10.13069688 -15.86136671 7.05795959 -14 4 C-13.34 4 -12.68 4 -12 4 C-12 3.34 -12 2.68 -12 2 C-7.85747753 -0.00849574 -4.5849842 -0.48262992 0 0 Z M-8 16 C-8.99 17.485 -8.99 17.485 -10 19 C-5.70024145 23.87305969 -0.62775683 26.8200442 5 30 C3.8483729 23.92778436 2.63442912 20.21311738 -2 16 C-5.1292764 15.24862832 -5.1292764 15.24862832 -8 16 Z M-16 42 C-14.3040692 48.41438717 -12.62304105 52.25130596 -7 56 C-4.71602968 55.65394389 -3.06590963 55.03295481 -1 54 C-1.96196194 50.28682693 -2.78435077 49.14330418 -6.0390625 46.98046875 C-7.22635488 46.36703435 -8.42207594 45.7696844 -9.625 45.1875 C-10.23601563 44.87619141 -10.84703125 44.56488281 -11.4765625 44.24414062 C-12.97731946 43.48203748 -14.48776998 42.7390758 -16 42 Z " fill="#4B88BB" transform="translate(69,41)"/>
<path d="M0 0 C3.75 -0.375 3.75 -0.375 7 0 C6.44068863 4.85556024 5.41477566 9.05814732 3.6875 13.625 C2.00886476 18.08370938 0.51398557 22.5434449 -0.86328125 27.10546875 C-2.97754851 34.05113788 -5.39610096 40.8649381 -7.875 47.6875 C-10.80555327 55.7989966 -13.66892647 63.91549286 -16.3125 72.125 C-18.3385552 78.38548219 -20.74610243 84.2696848 -24 90 C-26.64 90 -29.28 90 -32 90 C-32.495 90.99 -32.495 90.99 -33 92 C-39.44601842 91.51350804 -39.44601842 91.51350804 -41.7109375 89.4140625 C-43.50157616 86.06068465 -43.3615752 83.40756576 -43.3125 79.625 C-43.30863281 78.33851562 -43.30476563 77.05203125 -43.30078125 75.7265625 C-43.00987074 72.12229456 -42.22886161 69.37702428 -41 66 C-40.5268306 63.62846317 -40.5268306 63.62846317 -40.3125 61.375 C-40.22613281 60.64023438 -40.13976563 59.90546875 -40.05078125 59.1484375 C-39.99691121 56.86932052 -40.22759582 55.14400676 -41 53 C-41.66 52.67 -42.32 52.34 -43 52 C-43.25532751 48.93606987 -43.21861333 47.36766788 -41.625 44.6875 C-41.08875 44.130625 -40.5525 43.57375 -40 43 C-39.34 43 -38.68 43 -38 43 C-37.11243722 40.33731165 -36.79701942 38.40804612 -36.60546875 35.6484375 C-36.50202148 34.37033203 -36.50202148 34.37033203 -36.39648438 33.06640625 C-36.25903855 31.2963096 -36.13115807 29.52543963 -36.01367188 27.75390625 C-35.39607013 20.46292641 -33.60672877 14.14340822 -28.875 8.4375 C-27 7 -27 7 -25 7 C-25 6.34 -25 5.68 -25 5 C-21.63316085 2.56839395 -20.26649636 2 -16 2 C-16.25 4.375 -16.25 4.375 -17 7 C-17.65097656 7.29519531 -18.30195313 7.59039062 -18.97265625 7.89453125 C-21.1582125 8.81030205 -21.1582125 8.81030205 -21.79296875 10.92578125 C-21.92316406 11.71339844 -22.05335937 12.50101563 -22.1875 13.3125 C-22.33832031 14.20324219 -22.48914063 15.09398437 -22.64453125 16.01171875 C-23.02582886 19.21713274 -23.20614716 22.40178697 -23.375 25.625 C-23.83089403 32.54482009 -25.80023814 37.09063754 -29.9375 42.5625 C-30.288125 43.366875 -30.63875 44.17125 -31 45 C-30.31401965 46.73128375 -29.61366553 48.46112784 -28.78515625 50.12890625 C-26.23378532 56.20903897 -28.56258541 62.28637866 -30.33203125 68.234375 C-31.30345265 72.25640044 -31.20262 75.88005997 -31 80 C-30.01 80 -29.02 80 -28 80 C-27.9175 79.0925 -27.835 78.185 -27.75 77.25 C-27.27264851 73.95223216 -26.38953531 70.94962726 -25.31640625 67.796875 C-24.95659668 66.7356543 -24.59678711 65.67443359 -24.22607422 64.58105469 C-23.82146973 63.39930664 -23.41686523 62.21755859 -23 61 C-22.55339199 59.68918081 -22.10694611 58.37830637 -21.66064453 57.06738281 C-18.85448709 48.83556274 -16.02420456 40.61200957 -13.19308472 32.38874817 C-11.71449901 28.09077439 -10.25051993 23.7882834 -8.80078125 19.48046875 C-8.20060943 17.71611569 -7.60035808 15.95178969 -7 14.1875 C-6.74629639 13.41986328 -6.49259277 12.65222656 -6.23120117 11.86132812 C-4.71506878 7.44302978 -2.98955541 3.66848116 0 0 Z " fill="#5791C3" transform="translate(45,38)"/>
<path d="M0 0 C5.03191165 0.24545911 7.86366089 1.86805463 11.51391602 5.12304688 C14.21273306 8.53170556 13.90997477 12.00240087 13.6875 16.1875 C13.66623047 17.02885498 13.64496094 17.87020996 13.62304688 18.73706055 C13.36761585 24.55651868 12.24509598 29.46908933 9.8984375 34.828125 C8.72578545 37.66288387 8.53483817 39.9764481 9 43 C9.66 43.66 10.32 44.32 11 45 C11.4375 47.375 11.4375 47.375 11 50 C10.236875 50.598125 9.47375 51.19625 8.6875 51.8125 C2.47044763 56.87289147 2.42496734 65.14978466 1.625 72.6328125 C0.56403056 78.34878536 -2.10674696 82.72998054 -6 87 C-6.66 87 -7.32 87 -8 87 C-8 87.66 -8 88.32 -8 89 C-10.97 89.495 -10.97 89.495 -14 90 C-14 88.35 -14 86.7 -14 85 C-12.68 85 -11.36 85 -10 85 C-7.78255735 79.96035761 -6.71654715 75.47985453 -6.0625 70 C-5.32645171 64.14935978 -4.02267024 60.03778373 -1 55 C-1.99 55.66 -2.98 56.32 -4 57 C-4 54.36 -4 51.72 -4 49 C-4.66 48.67 -5.32 48.34 -6 48 C-5.175 47.236875 -4.35 46.47375 -3.5 45.6875 C-0.65944803 43.24565858 -0.65944803 43.24565858 -1 40 C-1.33 39.2575 -1.66 38.515 -2 37.75 C-4.28861243 31.45631582 -2.62147145 25.96362566 -0.5 19.9375 C1.14178004 15.24733377 2.53875677 11.03587924 2 6 C1.34 5.34 0.68 4.68 0 4 C0 2.68 0 1.36 0 0 Z " fill="#335C85" transform="translate(167,43)"/>
<path d="M0 0 C-0.25 2.375 -0.25 2.375 -1 5 C-1.65097656 5.29519531 -2.30195313 5.59039062 -2.97265625 5.89453125 C-5.1582125 6.81030205 -5.1582125 6.81030205 -5.79296875 8.92578125 C-5.92316406 9.71339844 -6.05335937 10.50101563 -6.1875 11.3125 C-6.33832031 12.20324219 -6.48914063 13.09398437 -6.64453125 14.01171875 C-7.02582886 17.21713274 -7.20614716 20.40178697 -7.375 23.625 C-7.74857182 29.29528659 -8.95276211 33.24223081 -12 38 C-13.89238052 41.08387937 -15.25147172 43.47122382 -16 47 C-16.65509503 49.00382009 -17.31974363 51.00458132 -18 53 C-18.99 52.34 -19.98 51.68 -21 51 C-21 50.34 -21 49.68 -21 49 C-21.66 49 -22.32 49 -23 49 C-23.495 47.515 -23.495 47.515 -24 46 C-24.99 45.67 -25.98 45.34 -27 45 C-25.625 43 -25.625 43 -24 41 C-23.34 41 -22.68 41 -22 41 C-21.11243722 38.33731165 -20.79701942 36.40804612 -20.60546875 33.6484375 C-20.50202148 32.37033203 -20.50202148 32.37033203 -20.39648438 31.06640625 C-20.25903855 29.2963096 -20.13115807 27.52543963 -20.01367188 25.75390625 C-19.39607013 18.46292641 -17.60672877 12.14340822 -12.875 6.4375 C-11 5 -11 5 -9 5 C-9 4.34 -9 3.68 -9 3 C-5.63316085 0.56839395 -4.26649636 0 0 0 Z " fill="#5692C3" transform="translate(29,40)"/>
<path d="M0 0 C0.33 1.32 0.66 2.64 1 4 C1.66 4 2.32 4 3 4 C3.99 5.485 3.99 5.485 5 7 C5.45375 6.030625 5.9075 5.06125 6.375 4.0625 C8 1 8 1 10 0 C13.99647356 7.99294713 11.6701467 14.90899076 9.0703125 22.94921875 C8.40644846 24.84147354 7.6934723 26.7181506 6.90625 28.5625 C5.92376943 31.20503396 5.59935158 33.50810526 5.375 36.3125 C5.30023438 37.19550781 5.22546875 38.07851562 5.1484375 38.98828125 C5.09945313 39.65214844 5.05046875 40.31601563 5 41 C5.66 41.33 6.32 41.66 7 42 C7 41.34 7 40.68 7 40 C8.32 40.33 9.64 40.66 11 41 C11 41.66 11 42.32 11 43 C10.01 43 9.02 43 8 43 C7.67 43.66 7.34 44.32 7 45 C0.55398158 44.51350804 0.55398158 44.51350804 -1.7109375 42.4140625 C-3.50157616 39.06068465 -3.3615752 36.40756576 -3.3125 32.625 C-3.30863281 31.33851562 -3.30476562 30.05203125 -3.30078125 28.7265625 C-3.00987074 25.12229456 -2.22886161 22.37702428 -1 19 C-0.5268306 16.62846317 -0.5268306 16.62846317 -0.3125 14.375 C-0.22613281 13.64023438 -0.13976562 12.90546875 -0.05078125 12.1484375 C0.00308879 9.86932052 -0.22759582 8.14400676 -1 6 C-1.66 5.67 -2.32 5.34 -3 5 C-3 3.68 -3 2.36 -3 1 C-2.01 0.67 -1.02 0.34 0 0 Z " fill="#679ECF" transform="translate(5,85)"/>
<path d="M0 0 C3.985936 2.10368845 6.76000697 4.03693541 9 8 C9.45034318 13.22183638 7.72828705 17.95804667 6 22.8125 C3.85141666 28.86122919 3.2265149 34.61227977 3 41 C-0.91046511 37.29007156 -2.84089141 35.31559828 -3.21875 29.81640625 C-2.97028049 25.48150068 -1.93077917 22.00168624 -0.5 17.9375 C2.40072166 9.85321713 2.40072166 9.85321713 1 1.625 C0.67 1.08875 0.34 0.5525 0 0 Z " fill="#3F7FB2" transform="translate(167,45)"/>
<path d="M0 0 C3.875 3.75 3.875 3.75 5 6 C4.40202538 13.59427767 3.37196666 21.12118802 0 28 C-0.99 28.33 -1.98 28.66 -3 29 C-3.66 28.67 -4.32 28.34 -5 28 C-5 29.65 -5 31.3 -5 33 C-8.44393065 30.33878086 -9.09770622 27.13551317 -10 23 C-9.67 22.34 -9.34 21.68 -9 21 C-8.01 21 -7.02 21 -6 21 C-4.09609152 16.92019612 -3.33446449 12.83834718 -2.5078125 8.44921875 C-1.90473566 5.54053277 -1.02630622 2.78568832 0 0 Z " fill="#4D87B7" transform="translate(158,100)"/>
<path d="M0 0 C0.47308594 0.36351562 0.94617187 0.72703125 1.43359375 1.1015625 C5.86838705 4.47304279 10.3745121 7.58288725 15.1171875 10.5078125 C17.27945821 12.22147933 18.08199058 13.40853591 19 16 C19.1953125 18.359375 19.1953125 18.359375 19.125 20.75 C19.10695313 21.54921875 19.08890625 22.3484375 19.0703125 23.171875 C19.04710938 23.77515625 19.02390625 24.3784375 19 25 C16.74754119 22.31158141 15.11786042 20.35358125 14 17 C12.35882946 16.27282637 10.68607636 15.61592916 9 15 C5.36667006 12.98973424 2.01916876 10.86419242 -1 8 C-1.6875 4.125 -1.6875 4.125 -1 1 C-0.67 0.67 -0.34 0.34 0 0 Z " fill="#315073" transform="translate(59,60)"/>
<path d="M0 0 C2.40085343 1.09861538 3.95748184 2.27998471 6 4 C6 3.01 6 2.02 6 1 C11.5 0.63333333 11.5 0.63333333 13.875 2.375 C15 4 15 4 15 6 C14.360625 6.28875 13.72125 6.5775 13.0625 6.875 C10.84793921 7.82823451 10.84793921 7.82823451 10 10 C8.68 9.34 7.36 8.68 6 8 C6 7.34 6 6.68 6 6 C-2.3303924 4.17490318 -7.62296914 5.94684046 -15 10 C-15.234375 4.296875 -15.234375 4.296875 -13.125 1.625 C-8.71116302 -0.67019523 -4.88104634 -0.80961534 0 0 Z " fill="#324962" transform="translate(148,43)"/>
<path d="M0 0 C3.4375 2 3.4375 2 6 4 C6.33 3.34 6.66 2.68 7 2 C8.98 2 10.96 2 13 2 C13 5.96 13 9.92 13 14 C12.67 14 12.34 14 12 14 C12 11.36 12 8.72 12 6 C10.68 6 9.36 6 8 6 C7.67 7.32 7.34 8.64 7 10 C3 8 3 8 1.13671875 6.953125 C-2.49284106 5.33408918 -6.10859923 5.40451874 -10 6 C-13.02690443 7.81590979 -13.02690443 7.81590979 -15 10 C-15.66 9.67 -16.32 9.34 -17 9 C-15.625 6.5 -15.625 6.5 -14 4 C-13.34 4 -12.68 4 -12 4 C-12 3.34 -12 2.68 -12 2 C-7.85747753 -0.00849574 -4.5849842 -0.48262992 0 0 Z " fill="#335272" transform="translate(69,41)"/>
<path d="M0 0 C0.556875 0.7425 1.11375 1.485 1.6875 2.25 C4.00620462 5.00737847 5.9337748 7.10186059 9 9 C12.24293584 8.86382428 12.24293584 8.86382428 15 8 C14.6875 11.375 14.6875 11.375 14 15 C11 17 11 17 7.5625 16.9375 C2.58538745 15.62773354 1.36225745 13.17961192 -1.25 9 C-2.18251906 6.5132825 -2.27736272 4.63494588 -2 2 C-1.34 1.34 -0.68 0.68 0 0 Z " fill="#335983" transform="translate(53,87)"/>
<path d="M0 0 C3.70806596 -0.11674705 7.4156554 -0.18743274 11.125 -0.25 C12.17171875 -0.28351562 13.2184375 -0.31703125 14.296875 -0.3515625 C20.51099715 -0.43022227 24.33835204 -0.28871612 29 4 C30.375 6.75 30.375 6.75 31 9 C30.4225 8.690625 29.845 8.38125 29.25 8.0625 C25.43137959 6.25926259 21.76541568 5.81378464 17.578125 5.46484375 C16.04091797 5.33432617 16.04091797 5.33432617 14.47265625 5.20117188 C13.40917969 5.11416016 12.34570312 5.02714844 11.25 4.9375 C10.17105469 4.84662109 9.09210938 4.75574219 7.98046875 4.66210938 C5.32054252 4.43848726 2.66040057 4.21789404 0 4 C0 2.68 0 1.36 0 0 Z " fill="#32506F" transform="translate(90,43)"/>
<path d="M0 0 C0.66 0 1.32 0 2 0 C1.77771604 3.50232769 1.51711233 7.0008285 1.25 10.5 C1.188125 11.48226562 1.12625 12.46453125 1.0625 13.4765625 C0.3982215 21.7800437 -1.49029946 28.42025668 -8 34 C-7.855625 33.44183594 -7.71125 32.88367188 -7.5625 32.30859375 C-5.93504645 25.62925313 -4.95504159 19.05550836 -4.625 12.1875 C-4.27912354 6.90502322 -3.64987976 3.87108459 0 0 Z " fill="#74A7D5" transform="translate(21,48)"/>
<path d="M0 0 C1.17129392 3.40290687 0.83792399 5.24221213 -0.44140625 8.5703125 C-0.77495117 9.45831543 -1.10849609 10.34631836 -1.45214844 11.26123047 C-1.81856445 12.20627441 -2.18498047 13.15131836 -2.5625 14.125 C-3.31079724 16.10854513 -4.05685997 18.09293454 -4.80078125 20.078125 C-5.17412598 21.07134766 -5.5474707 22.06457031 -5.93212891 23.08789062 C-7.73886778 28.01490967 -9.35013527 33.00526744 -10.92016602 38.01220703 C-12.51041597 42.94876773 -14.59358367 47.40312778 -17 52 C-18.10706783 48.67879651 -17.95609826 48.16445036 -16.8125 45.03515625 C-16.52930908 44.24471924 -16.24611816 43.45428223 -15.9543457 42.63989258 C-15.48194458 41.36408325 -15.48194458 41.36408325 -15 40.0625 C-14.34725811 38.25535209 -13.69492635 36.448056 -13.04296875 34.640625 C-12.70442871 33.71056641 -12.36588867 32.78050781 -12.01708984 31.82226562 C-11.0257125 29.07134818 -10.06356016 26.31223163 -9.11328125 23.546875 C-8.81099609 22.66894287 -8.50871094 21.79101074 -8.19726562 20.88647461 C-7.62489596 19.22132744 -7.05445295 17.55551624 -6.48632812 15.88891602 C-4.60259877 10.45503769 -2.41245761 5.22013278 0 0 Z " fill="#9FC8EC" transform="translate(39,74)"/>
<path d="M0 0 C0.66 0.33 1.32 0.66 2 1 C2.65838485 9.39440684 0.08306972 16.94111639 -3.09375 24.65625 C-4.279206 27.72208448 -4.61733807 30.74737361 -5 34 C-5.99 34 -6.98 34 -8 34 C-7.44276562 22.40952497 -4.45453282 10.69087876 0 0 Z " fill="#9EC4E9" transform="translate(15,89)"/>
<path d="M0 0 C3.875 3.75 3.875 3.75 5 6 C4.80207776 8.34064562 4.51869782 10.67446713 4.1875 13 C4.01605469 14.258125 3.84460938 15.51625 3.66796875 16.8125 C3 20 3 20 1 22 C0.731875 21.38125 0.46375 20.7625 0.1875 20.125 C-0.95556848 17.7004767 -0.95556848 17.7004767 -4 16 C-2.98408579 10.53135543 -1.92908943 5.23609987 0 0 Z " fill="#89B5DF" transform="translate(158,100)"/>
<path d="M0 0 C0.66 0.33 1.32 0.66 2 1 C4.85894922 9.57684767 2.722892 20.15748184 2 29 C1.34 29 0.68 29 0 29 C-2.16693628 19.52395325 -0.95116607 9.57960112 0 0 Z " fill="#85B4DD" transform="translate(121,86)"/>
<path d="M0 0 C0.70125 0.495 1.4025 0.99 2.125 1.5 C5.37119719 3.1936681 7.39340156 3.25162315 11 3 C13.09230769 7.43076923 13.09230769 7.43076923 12.625 10.3125 C12.41875 10.869375 12.2125 11.42625 12 12 C7.76345733 11.8029515 6.27721051 11.27105028 3.1875 8.25 C1.17685947 5.26276264 0.31123641 3.52734604 0 0 Z " fill="#334B68" transform="translate(132,94)"/>
<path d="M0 0 C1 3 1 3 0.125 5.4375 C-1.48816189 10.545846 -1.67252401 15.67420626 -2 21 C-6.875 16.375 -6.875 16.375 -8 13 C-8.03954234 10.66700175 -8.04401732 8.33291811 -8 6 C-5.525 6.495 -5.525 6.495 -3 7 C-2.01 4.69 -1.02 2.38 0 0 Z " fill="#5E95C6" transform="translate(172,65)"/>
<path d="M0 0 C2.31 0 4.62 0 7 0 C6.40015015 6.5983484 4.55432523 12.88889737 2 19 C1.34 19.33 0.68 19.66 0 20 C0.56820748 14.54520815 1.94637945 10.08940744 4 5 C1.03 4.505 1.03 4.505 -2 4 C-1.34 2.68 -0.68 1.36 0 0 Z " fill="#3477A4" transform="translate(45,38)"/>
<path d="M0 0 C0.66 0 1.32 0 2 0 C2.1875 3.375 2.1875 3.375 2 7 C-1.08888522 9.05925681 -1.70935927 9.2390374 -5.1875 9.125 C-7.0746875 9.063125 -7.0746875 9.063125 -9 9 C-9 7.35 -9 5.7 -9 4 C-2.25 2 -2.25 2 0 2 C0 1.34 0 0.68 0 0 Z " fill="#325376" transform="translate(108,67)"/>
<path d="M0 0 C11.34615385 5.44615385 11.34615385 5.44615385 15 11 C15 11.66 15 12.32 15 13 C11.9521119 11.55260109 9.17861872 9.87533024 6.375 8 C5.59898437 7.484375 4.82296875 6.96875 4.0234375 6.4375 C2 5 2 5 0 3 C0 2.01 0 1.02 0 0 Z " fill="#325270" transform="translate(139,66)"/>
<path d="M0 0 C3.75376152 1.25125384 4.24073289 2.5652404 6 6 C6 6.66 6 7.32 6 8 C3.125 8.625 3.125 8.625 0 9 C-0.66 8.34 -1.32 7.68 -2 7 C-2 6.01 -2 5.02 -2 4 C-2.66 3.67 -3.32 3.34 -4 3 C-2.1875 1.4375 -2.1875 1.4375 0 0 Z " fill="#2E4B74" transform="translate(167,85)"/>
<path d="M0 0 C0.66 0.33 1.32 0.66 2 1 C1.03137596 9.0110906 -0.13249662 16.44021836 -3 24 C-4.09916562 20.70250315 -3.89023727 19.45118637 -3.22265625 16.11328125 C-2.94711914 14.7065918 -2.94711914 14.7065918 -2.66601562 13.27148438 C-2.46685547 12.29501953 -2.26769531 11.31855469 -2.0625 10.3125 C-1.86720703 9.32443359 -1.67191406 8.33636719 -1.47070312 7.31835938 C-0.98724224 4.87747148 -0.49676034 2.43820991 0 0 Z " fill="#4F8EC0" transform="translate(91,57)"/>
<path d="M0 0 C3.97436316 2.09758056 6.59527117 4.17024667 9 8 C9.375 11.1875 9.375 11.1875 9 14 C8.34 14.66 7.68 15.32 7 16 C6.67 14.02 6.34 12.04 6 10 C5.01 9.67 4.02 9.34 3 9 C1.875 6.125 1.875 6.125 1 3 C0.67 2.01 0.34 1.02 0 0 Z " fill="#5C93C4" transform="translate(167,45)"/>
<path d="M0 0 C-0.78697325 3.41021743 -1.87119943 6.68885166 -3 10 C-3.99 9.34 -4.98 8.68 -6 8 C-6 7.34 -6 6.68 -6 6 C-6.66 6 -7.32 6 -8 6 C-6.56530686 1.69592058 -4.58010985 0 0 0 Z " fill="#365A7E" transform="translate(14,83)"/>
<path d="M0 0 C0.66 0.33 1.32 0.66 2 1 C2.33 1.99 2.66 2.98 3 4 C3.66 4.33 4.32 4.66 5 5 C5.33 4.01 5.66 3.02 6 2 C6.66 2.33 7.32 2.66 8 3 C6.6875 5.9375 6.6875 5.9375 5 9 C4.01 9.33 3.02 9.66 2 10 C-1.07692308 5.69230769 -1.07692308 5.69230769 -0.6875 2.1875 C-0.460625 1.465625 -0.23375 0.74375 0 0 Z " fill="#4784B6" transform="translate(159,95)"/>
<path d="M0 0 C0.66 0 1.32 0 2 0 C1.68383092 6.16529701 -1.49215061 10.17268433 -5 15 C-6.21940083 11.3417975 -5.63709904 10.41551324 -4.1875 6.9375 C-3.83042969 6.05964844 -3.47335937 5.18179688 -3.10546875 4.27734375 C-2 2 -2 2 0 0 Z " fill="#A0C8EE" transform="translate(19,67)"/>
<path d="M0 0 C0.33 0 0.66 0 1 0 C1.33 2.31 1.66 4.62 2 7 C2.66 7 3.32 7 4 7 C3.67 8.98 3.34 10.96 3 13 C1.68 12.34 0.36 11.68 -1 11 C-1.02688151 9.35425434 -1.04634123 7.70838587 -1.0625 6.0625 C-1.07410156 5.14597656 -1.08570313 4.22945313 -1.09765625 3.28515625 C-1 1 -1 1 0 0 Z " fill="#375379" transform="translate(12,111)"/>
<path d="M0 0 C0.66 0 1.32 0 2 0 C2.28875 0.639375 2.5775 1.27875 2.875 1.9375 C3.82823451 4.15206079 3.82823451 4.15206079 6 5 C5.67 5.99 5.34 6.98 5 8 C4.01 8.33 3.02 8.66 2 9 C1.34 9.66 0.68 10.32 0 11 C0 8.36 0 5.72 0 3 C-0.66 2.67 -1.32 2.34 -2 2 C-1.34 1.34 -0.68 0.68 0 0 Z " fill="#346490" transform="translate(163,89)"/>
<path d="M0 0 C2.73277221 2.17220355 4.72888915 3.85827965 5.5546875 7.3359375 C5.78650022 9.56274452 5.94637012 11.76217118 6 14 C1.5885273 10.76492002 1.15305442 7.15442808 0.296875 2.046875 C0.19890625 1.37140625 0.1009375 0.6959375 0 0 Z " fill="#72A4D4" transform="translate(150,60)"/>
<path d="M0 0 C2.475 0.495 2.475 0.495 5 1 C5 3.31 5 5.62 5 8 C4.01 8 3.02 8 2 8 C0.74335022 5.09399739 0 3.20395416 0 0 Z " fill="#335B7E" transform="translate(113,97)"/>
<path d="M0 0 C1.32 0 2.64 0 4 0 C6 3 6 3 6 6 C4.35 6.33 2.7 6.66 1 7 C0.67 4.69 0.34 2.38 0 0 Z " fill="#345172" transform="translate(124,81)"/>
<path d="M0 0 C1.12864571 2.82503443 0.99492545 4.01633704 0.07421875 6.98046875 C-0.38339844 8.03878906 -0.84101562 9.09710938 -1.3125 10.1875 C-1.76238281 11.25355469 -2.21226563 12.31960937 -2.67578125 13.41796875 C-4 16 -4 16 -6 17 C-4.49829538 11.01448228 -3.05773837 5.38744379 0 0 Z " fill="#87B8E2" transform="translate(39,74)"/>
<path d="M0 0 C1.485 0.99 1.485 0.99 3 2 C3.29296875 5.0390625 3.29296875 5.0390625 3.1875 8.625 C3.16042969 9.81351563 3.13335937 11.00203125 3.10546875 12.2265625 C3.07066406 13.14179687 3.03585938 14.05703125 3 15 C0.33684806 12.33684806 0.05573507 10.34655932 -0.09765625 6.640625 C-0.08605469 5.85171875 -0.07445313 5.0628125 -0.0625 4.25 C-0.05347656 3.45078125 -0.04445313 2.6515625 -0.03515625 1.828125 C-0.02355469 1.22484375 -0.01195313 0.6215625 0 0 Z " fill="#75A7D5" transform="translate(127,62)"/>
<path d="M0 0 C3 1 3 1 4 3 C4.1875 6.5 4.1875 6.5 4 10 C3.34 10.66 2.68 11.32 2 12 C0.70756464 7.8803623 -0.26252625 4.33168317 0 0 Z " fill="#6399C8" transform="translate(145,91)"/>
<path d="M0 0 C0.66 0 1.32 0 2 0 C1.67 2.97 1.34 5.94 1 9 C-0.32 9 -1.64 9 -3 9 C-2.25 2.25 -2.25 2.25 0 0 Z " fill="#81AFDE" transform="translate(21,48)"/>
<path d="M0 0 C0.66 0.33 1.32 0.66 2 1 C2 2.98 2 4.96 2 7 C1.34 7 0.68 7 0 7 C-0.12375 7.639375 -0.2475 8.27875 -0.375 8.9375 C-0.58125 9.618125 -0.7875 10.29875 -1 11 C-1.99 11.495 -1.99 11.495 -3 12 C-2.25749403 7.91621717 -1.17076699 3.98060777 0 0 Z " fill="#89B5DF" transform="translate(15,89)"/>
<path d="M0 0 C1.65 0 3.3 0 5 0 C4.34 1.98 3.68 3.96 3 6 C1.35 6 -0.3 6 -2 6 C-1.34 4.02 -0.68 2.04 0 0 Z " fill="#34567B" transform="translate(47,80)"/>
<path d="M0 0 C1.91796875 0.31640625 1.91796875 0.31640625 4 1 C5.3125 3.9375 5.3125 3.9375 6 7 C5.67 7.66 5.34 8.32 5 9 C4.01 8.67 3.02 8.34 2 8 C1.26953125 6.15234375 1.26953125 6.15234375 0.8125 3.9375 C0.65394531 3.20402344 0.49539062 2.47054687 0.33203125 1.71484375 C0.22246094 1.14894531 0.11289063 0.58304687 0 0 Z " fill="#6FA3D1" transform="translate(154,117)"/>
<path d="M0 0 C0.99 0.495 0.99 0.495 2 1 C3.04976964 4.14930893 3.10131595 6.38814456 3.0625 9.6875 C3.05347656 10.68136719 3.04445313 11.67523438 3.03515625 12.69921875 C3.02355469 13.45847656 3.01195313 14.21773437 3 15 C2.67 15 2.34 15 2 15 C2 13.02 2 11.04 2 9 C1.34 9 0.68 9 0 9 C0 6.03 0 3.06 0 0 Z " fill="#5993C5" transform="translate(121,86)"/>
<path d="M0 0 C1.98 0 3.96 0 6 0 C5.67 1.32 5.34 2.64 5 4 C2.69 4 0.38 4 -2 4 C-1.34 2.68 -0.68 1.36 0 0 Z " fill="#334E6C" transform="translate(45,38)"/>
<path d="M0 0 C0.66 0 1.32 0 2 0 C3.7578125 5.95703125 3.7578125 5.95703125 4 8 C3.01 9.485 3.01 9.485 2 11 C-1.07692308 5.70769231 -1.07692308 5.70769231 -0.6875 2.125 C-0.460625 1.42375 -0.23375 0.7225 0 0 Z " fill="#3671A3" transform="translate(122,81)"/>
<path d="M0 0 C0.99 0.99 1.98 1.98 3 3 C1.84826645 5.46800047 0.95216435 7.04783565 -1 9 C-1.625 5.625 -1.625 5.625 -2 2 C-1.34 1.34 -0.68 0.68 0 0 Z " fill="#356A9B" transform="translate(53,87)"/>
<path d="M0 0 C0.99 0.33 1.98 0.66 3 1 C2.67 3.31 2.34 5.62 2 8 C1.01 8 0.02 8 -1 8 C-1.04241723 5.66705225 -1.04092937 3.33297433 -1 1 C-0.67 0.67 -0.34 0.34 0 0 Z " fill="#325C81" transform="translate(95,97)"/>
<path d="M0 0 C2.52588702 2.36292656 3.88820837 3.66462511 5 7 C3.35 7 1.7 7 0 7 C-1.125 2.25 -1.125 2.25 0 0 Z " fill="#334C69" transform="translate(168,85)"/>
<path d="M0 0 C0.66 0 1.32 0 2 0 C0.515 6.435 0.515 6.435 -1 13 C-1.33 13 -1.66 13 -2 13 C-3.34465195 5.78777589 -3.34465195 5.78777589 -1.6875 2 C-1.130625 1.34 -0.57375 0.68 0 0 Z " fill="#A8CEF1" transform="translate(15,96)"/>
<path d="M0 0 C0.66 1.32 1.32 2.64 2 4 C0.02 6.97 0.02 6.97 -2 10 C-2.66 9.34 -3.32 8.68 -4 8 C-1.125 1.125 -1.125 1.125 0 0 Z " fill="#4A86B9" transform="translate(14,85)"/>
<path d="M0 0 C0 0.66 0 1.32 0 2 C-6.75 5 -6.75 5 -9 5 C-9 4.34 -9 3.68 -9 3 C-5.63316085 0.56839395 -4.26649636 0 0 0 Z " fill="#314C67" transform="translate(29,40)"/>
<path d="M0 0 C2.475 0.495 2.475 0.495 5 1 C5.33 2.65 5.66 4.3 6 6 C4.125 5.8125 4.125 5.8125 2 5 C0.75 2.4375 0.75 2.4375 0 0 Z " fill="#3C75A6" transform="translate(149,121)"/>
<path d="M0 0 C0.99 0.99 1.98 1.98 3 3 C1.84826645 5.46800047 0.95216435 7.04783565 -1 9 C-1.80967438 6.08517222 -2.21845993 4.53886783 -1.0625 1.6875 C-0.711875 1.130625 -0.36125 0.57375 0 0 Z " fill="#3A80B0" transform="translate(51,82)"/>
<path d="M0 0 C2.4294516 3.6441774 2.16179575 5.71241272 2 10 C1.01 10 0.02 10 -1 10 C-0.67 6.7 -0.34 3.4 0 0 Z " fill="#87B4DE" transform="translate(8,113)"/>
<path d="M0 0 C0.99 0 1.98 0 3 0 C3 2.31 3 4.62 3 7 C2.01 7 1.02 7 0 7 C0 4.69 0 2.38 0 0 Z " fill="#33587E" transform="translate(80,97)"/>
<path d="M0 0 C0.99 0.33 1.98 0.66 3 1 C3.125 3.875 3.125 3.875 3 7 C2.34 7.66 1.68 8.32 1 9 C1 7.68 1 6.36 1 5 C0.34 4.67 -0.32 4.34 -1 4 C-0.67 2.68 -0.34 1.36 0 0 Z " fill="#538CC2" transform="translate(110,61)"/>
<path d="M0 0 C2.875 0.25 2.875 0.25 6 1 C7.375 3.0625 7.375 3.0625 8 5 C4.5625 4.1875 4.5625 4.1875 1 3 C0.67 2.01 0.34 1.02 0 0 Z " fill="#354960" transform="translate(167,43)"/>
<path d="M0 0 C1.5 1.25 1.5 1.25 3 3 C3 4.32 3 5.64 3 7 C2.01 7.33 1.02 7.66 0 8 C-1.125 2.25 -1.125 2.25 0 0 Z " fill="#4C89BC" transform="translate(128,57)"/>
<path d="M0 0 C3 1 3 1 4 3 C4.039992 4.99960012 4.04346799 7.00047242 4 9 C1.49701566 6.06171403 0.53069061 3.82097239 0 0 Z " fill="#9ABFEA" transform="translate(148,123)"/>
<path d="M0 0 C0.66 1.32 1.32 2.64 2 4 C2.99 4 3.98 4 5 4 C1.25 7 1.25 7 -1 7 C-1.04254356 5.00045254 -1.04080783 2.99958364 -1 1 C-0.67 0.67 -0.34 0.34 0 0 Z " fill="#335A82" transform="translate(132,48)"/>
<path d="M0 0 C1.70884005 1.62339805 3.37446717 3.29319053 5 5 C5 5.66 5 6.32 5 7 C2.33333333 5.66666667 -0.33333333 4.33333333 -3 3 C-2.01 2.67 -1.02 2.34 0 2 C0 1.34 0 0.68 0 0 Z " fill="#375B82" transform="translate(116,45)"/>
<path d="M0 0 C0.66 0.33 1.32 0.66 2 1 C2 1.66 2 2.32 2 3 C0.37373596 4.38232443 -1.2925002 5.71937515 -3 7 C-3.66 6.67 -4.32 6.34 -5 6 C-2.25 1.125 -2.25 1.125 0 0 Z " fill="#366186" transform="translate(57,44)"/>
<path d="M0 0 C1.65 1.32 3.3 2.64 5 4 C4.34 5.32 3.68 6.64 3 8 C0 3.375 0 3.375 0 0 Z " fill="#335476" transform="translate(132,94)"/>
<path d="M0 0 C0.66 0 1.32 0 2 0 C2 2.64 2 5.28 2 8 C1.34 7.67 0.68 7.34 0 7 C-0.6875 4 -0.6875 4 -1 1 C-0.67 0.67 -0.34 0.34 0 0 Z " fill="#3570A1" transform="translate(161,92)"/>
<path d="M0 0 C0.66 0.33 1.32 0.66 2 1 C2 3.97 2 6.94 2 10 C0.4375 8.375 0.4375 8.375 -1 6 C-0.6875 2.75 -0.6875 2.75 0 0 Z " fill="#366997" transform="translate(76,75)"/>
<path d="M0 0 C0.6875 1.8125 0.6875 1.8125 1 4 C-0.4375 5.75 -0.4375 5.75 -2 7 C-2.99 6.67 -3.98 6.34 -5 6 C-3.625 4 -3.625 4 -2 2 C-1.34 2 -0.68 2 0 2 C0 1.34 0 0.68 0 0 Z " fill="#3A6694" transform="translate(7,79)"/>
<path d="M0 0 C0.66 0 1.32 0 2 0 C1.67 1.32 1.34 2.64 1 4 C0.34 4 -0.32 4 -1 4 C-1.33 4.99 -1.66 5.98 -2 7 C-2.33 6.01 -2.66 5.02 -3 4 C-1.6875 1.8125 -1.6875 1.8125 0 0 Z " fill="#8FBBE4" transform="translate(19,67)"/>
<path d="M0 0 C2.475 0.495 2.475 0.495 5 1 C4.67 2.65 4.34 4.3 4 6 C2.62437146 4.71034824 1.29233607 3.37310707 0 2 C0 1.34 0 0.68 0 0 Z " fill="#3875A7" transform="translate(128,55)"/>
<path d="M0 0 C0.33 0 0.66 0 1 0 C0.25 6.75 0.25 6.75 -2 9 C-2 7.68 -2 6.36 -2 5 C-2.99 4.67 -3.98 4.34 -5 4 C-4.0409375 3.8453125 -4.0409375 3.8453125 -3.0625 3.6875 C-2.381875 3.460625 -1.70125 3.23375 -1 3 C-0.67 2.01 -0.34 1.02 0 0 Z " fill="#396793" transform="translate(51,38)"/>
</svg>
