<?xml version="1.0" encoding="UTF-8"?>
<svg version="1.1" xmlns="http://www.w3.org/2000/svg" width="100" height="100">
<path d="M0 0 C0.99 0 1.98 0 3 0 C6.77777778 0.77777778 6.77777778 0.77777778 8 2 C8.09927286 3.9562593 8.12969729 5.91622909 8.125 7.875 C8.12886719 9.47988281 8.12886719 9.47988281 8.1328125 11.1171875 C8 14 8 14 7 17 C5.35 17 3.7 17 2 17 C1.01 14.36 0.02 11.72 -1 9 C-1.99 9.33 -2.98 9.66 -4 10 C-4 10.99 -4 11.98 -4 13 C-2.29072667 14.66030817 -2.29072667 14.66030817 -0.125 16.25 C3.92810886 19.60849479 5.15950267 21.85195385 6 27 C8.11758739 23.82361891 8.19945359 23.31523289 8 19.75 C7.91131347 16.52076684 8.11446905 14.61619199 9.0625 11.4375 C10.23268176 7.14683354 9.7629811 4.34899229 9 0 C14.75 0.75 14.75 0.75 17 3 C17.75329884 11.06923507 18.42340184 24.08816258 13.5625 31.0625 C11.9652433 34.0653426 11.5633181 36.1686653 11.0625 39.5 C10.32181332 44.0048321 9.59519935 46.91840056 6 50 C3.25 50.8125 3.25 50.8125 1 51 C-1 48 -1 48 -0.75 45.4375 C0 43 0 43 2 41 C2 40.01 2 39.02 2 38 C1.649375 38.495 1.29875 38.99 0.9375 39.5 C-2.02552179 41.79395236 -4.37042697 41.38888282 -8 41 C-9.9375 39.5 -9.9375 39.5 -11 38 C-11.66 38.99 -12.32 39.98 -13 41 C-13.99 40.67 -14.98 40.34 -16 40 C-16 33.73 -16 27.46 -16 21 C-14.35 21.33 -12.7 21.66 -11 22 C-9.96514123 24.31808364 -8.9644586 26.65175298 -8 29 C-5.93109581 30.04289755 -5.93109581 30.04289755 -4 30 C-3.67 28.68 -3.34 27.36 -3 26 C-3.7425 25.773125 -4.485 25.54625 -5.25 25.3125 C-8.7200344 23.65634722 -10.02692125 22.31195362 -12 19 C-13.4462261 13.41421369 -13.39942799 8.32047076 -11 3 C-7.12655805 -0.44305951 -4.97410125 -1.61322203 0 0 Z M3 35 C4 37 4 37 4 37 Z " fill="#336088" transform="translate(83,24)"/>
<path d="M0 0 C0.99386719 0.10183594 1.98773438 0.20367188 3.01171875 0.30859375 C3.77097656 0.39238281 4.53023437 0.47617187 5.3125 0.5625 C5.33949725 2.83326842 5.35889453 5.10412821 5.375 7.375 C5.38660156 8.63957031 5.39820312 9.90414062 5.41015625 11.20703125 C5.3125 14.5625 5.3125 14.5625 4.3125 17.5625 C3.6525 17.5625 2.9925 17.5625 2.3125 17.5625 C2.6425 18.5525 2.9725 19.5425 3.3125 20.5625 C3.94375555 28.18612468 3.55907968 34.1353459 -1.0625 40.4375 C-3.33640728 42.0117435 -4.91905246 42.43066916 -7.6875 42.5625 C-10.5 41.125 -10.5 41.125 -12.6875 39.5625 C-13.3475 40.2225 -14.0075 40.8825 -14.6875 41.5625 C-15.6775 41.5625 -16.6675 41.5625 -17.6875 41.5625 C-17.74157567 38.97888482 -17.781207 36.39640745 -17.8125 33.8125 C-17.82925781 33.08289062 -17.84601562 32.35328125 -17.86328125 31.6015625 C-17.89822239 27.7580376 -17.86249684 24.81643228 -15.6875 21.5625 C-15.0275 21.5625 -14.3675 21.5625 -13.6875 21.5625 C-13.79449219 21.005625 -13.90148437 20.44875 -14.01171875 19.875 C-15.11840732 12.83027277 -13.89667353 8.15240699 -10.1875 2.125 C-7.15092987 -1.03809388 -4.04002889 -0.42776777 0 0 Z M-6.6875 8.5625 C-6.6875 9.8825 -6.6875 11.2025 -6.6875 12.5625 C-3.67005337 15.63987121 -3.67005337 15.63987121 0.3125 16.5625 C-0.95724972 12.14727891 -0.95724972 12.14727891 -3.6875 8.5625 C-4.6775 8.5625 -5.6675 8.5625 -6.6875 8.5625 Z M-10.6875 24.5625 C-9.61348892 27.47767292 -8.90939824 29.34060176 -6.6875 31.5625 C-5.6975 31.5625 -4.7075 31.5625 -3.6875 31.5625 C-4.07347015 28.76421644 -4.48886573 27.7419116 -6.625 25.8125 C-8.57061217 24.38973276 -8.57061217 24.38973276 -10.6875 24.5625 Z " fill="#4175A1" transform="translate(40.6875,22.4375)"/>
<path d="M0 0 C1.72880982 -0.05449838 3.45812712 -0.09301688 5.1875 -0.125 C6.15042969 -0.14820312 7.11335938 -0.17140625 8.10546875 -0.1953125 C11.2176615 0.01468701 13.26708597 0.49902131 16 2 C19.31605431 6.52189225 18.59532706 12.68457986 18 18 C16.96146439 20.65512407 15.99332999 21.8894153 14 24 C13.34 24 12.68 24 12 24 C12.30035156 24.64066406 12.60070312 25.28132813 12.91015625 25.94140625 C15.36277419 31.52007281 16.55159815 35.0522071 15 41 C10.25 42.125 10.25 42.125 8 41 C7.37147066 38.66752185 6.84464754 36.30708533 6.375 33.9375 C5.98441406 32.00197266 5.98441406 32.00197266 5.5859375 30.02734375 C5.39257812 29.02832031 5.19921875 28.02929688 5 27 C4.06380187 30.15506142 3.8942877 32.96586502 3.9375 36.25 C3.958125 37.8175 3.97875 39.385 4 41 C0.37 41 -3.26 41 -7 41 C-7.125 34.375 -7.125 34.375 -6 31 C-5.34 31 -4.68 31 -4 31 C-3.4657727 28.14776949 -2.94736834 25.29409862 -2.4375 22.4375 C-2.28603516 21.63763672 -2.13457031 20.83777344 -1.97851562 20.01367188 C-1.10275679 15.02388319 -1.14242045 11.04458557 -2 6 C-1.0625 2.5625 -1.0625 2.5625 0 0 Z M8 9 C6.5393715 11.64738916 6 12.89448334 6 16 C7.32 15.67 8.64 15.34 10 15 C10.33 13.35 10.66 11.7 11 10 C10.01 9.67 9.02 9.34 8 9 Z " fill="#316793" transform="translate(50,23)"/>
<path d="M0 0 C0.99 0.33 1.98 0.66 3 1 C2.38014442 6.82252963 0.83945824 12.01833181 -1.0546875 17.546875 C-1.35690216 18.43989319 -1.65911682 19.33291138 -1.9704895 20.25299072 C-2.60787485 22.12985622 -3.24846618 24.00563571 -3.89208984 25.88037109 C-4.87541912 28.75122362 -5.84250027 31.62721448 -6.80859375 34.50390625 C-7.43131582 36.33106204 -8.05498119 38.15789667 -8.6796875 39.984375 C-8.9672995 40.84375671 -9.2549115 41.70313843 -9.55123901 42.58856201 C-9.82807526 43.38659241 -10.1049115 44.1846228 -10.39013672 45.00683594 C-10.62916718 45.70742126 -10.86819763 46.40800659 -11.11447144 47.12982178 C-12.11910672 49.25154558 -13.20783645 50.49496799 -15 52 C-17.67318858 52.66957496 -20.23825037 52.77362708 -23 53 C-26.42478402 47.86282398 -25.2962025 41.63062521 -24.4375 35.6875 C-23.80563141 32.14614081 -23.80563141 32.14614081 -24.625 29.3125 C-25 27 -25 27 -23.578125 24.76171875 C-21.74399166 21.55198541 -21.47571265 19.1610979 -21.125 15.5 C-20.18145161 8.4233871 -20.18145161 8.4233871 -17.5 5.8125 C-16.675 5.214375 -15.85 4.61625 -15 4 C-14.34 3.34 -13.68 2.68 -13 2 C-10.875 2.375 -10.875 2.375 -9 3 C-10 6 -10 6 -12 7 C-12.61423832 10.22133877 -12.9603831 13.44639473 -13.33984375 16.703125 C-14 20 -14 20 -15.55859375 22.5234375 C-17.39672333 25.68163303 -17.27133203 27.75113037 -17.125 31.375 C-16.95691772 36.07009823 -17.29364445 40.35597067 -18 45 C-17.62190186 43.91581787 -17.24380371 42.83163574 -16.85424805 41.71459961 C-15.44218418 37.66766684 -14.02686655 33.62187822 -12.6105957 29.57641602 C-11.99969002 27.82997868 -11.38965079 26.08323799 -10.78051758 24.33618164 C-9.90156574 21.81575311 -9.01943726 19.2964552 -8.13671875 16.77734375 C-7.86784348 16.00414291 -7.5989682 15.23094208 -7.32194519 14.43431091 C-2.73090492 1.36545246 -2.73090492 1.36545246 0 0 Z " fill="#4C7295" transform="translate(26,20)"/>
<path d="M0 0 C5.75 0.75 5.75 0.75 8 3 C8.75329884 11.06923507 9.42340184 24.08816258 4.5625 31.0625 C2.9652433 34.0653426 2.5633181 36.1686653 2.0625 39.5 C1.32181332 44.0048321 0.59519935 46.91840056 -3 50 C-5.75 50.8125 -5.75 50.8125 -8 51 C-10 48 -10 48 -9.75 45.4375 C-9 43 -9 43 -7 41 C-6.30251417 39.68252676 -5.63040043 38.35085807 -5 37 C-5 39.64 -5 42.28 -5 45 C-4.34 45 -3.68 45 -3 45 C-2.81824219 43.77023438 -2.81824219 43.77023438 -2.6328125 42.515625 C-2.46523437 41.43796875 -2.29765625 40.3603125 -2.125 39.25 C-1.96257812 38.18265625 -1.80015625 37.1153125 -1.6328125 36.015625 C-1.06776118 33.32291129 -0.36577086 31.36427561 1 29 C-0.32 29 -1.64 29 -3 29 C-2.67 28.360625 -2.34 27.72125 -2 27.0625 C-0.86451978 23.58509183 -0.964818 20.87706531 -1.06640625 17.26171875 C-1 15 -1 15 0.0625 11.4375 C1.23268176 7.14683354 0.7629811 4.34899229 0 0 Z " fill="#4677A2" transform="translate(92,24)"/>
<path d="M0 0 C1.72880982 -0.05449838 3.45812712 -0.09301688 5.1875 -0.125 C6.15042969 -0.14820312 7.11335938 -0.17140625 8.10546875 -0.1953125 C11.2176615 0.01468701 13.26708597 0.49902131 16 2 C18.3042908 5.12576003 18.29811303 8.13454448 18.3125 11.9375 C18.32925781 12.95714844 18.34601563 13.97679687 18.36328125 15.02734375 C17.95494192 18.36870105 16.91007169 20.26340652 15 23 C14.34 22.01 13.68 21.02 13 20 C11.03638136 19.42251197 11.03638136 19.42251197 8.875 19.3125 C7.59625 19.209375 6.3175 19.10625 5 19 C5 17.35 5 15.7 5 14 C5.33 14.66 5.66 15.32 6 16 C7.32 15.34 8.64 14.68 10 14 C10 12.68 10 11.36 10 10 C9.34 10 8.68 10 8 10 C7.01 11.485 7.01 11.485 6 13 C5.01 10.03 4.02 7.06 3 4 C2.01 4 1.02 4 0 4 C0.33 6.97 0.66 9.94 1 13 C-2.18518519 6.62962963 -2.18518519 6.62962963 -1.0625 2.8125 C-0.711875 1.884375 -0.36125 0.95625 0 0 Z " fill="#2C587E" transform="translate(50,23)"/>
<path d="M0 0 C0.02699725 2.27076842 0.04639453 4.54162821 0.0625 6.8125 C0.07410156 8.07707031 0.08570312 9.34164062 0.09765625 10.64453125 C0 14 0 14 -1 17 C-1.66 17 -2.32 17 -3 17 C-2.67 17.99 -2.34 18.98 -2 20 C-1.9314505 21.89470816 -1.91519628 23.7916834 -1.9375 25.6875 C-1.94652344 26.68136719 -1.95554687 27.67523438 -1.96484375 28.69921875 C-1.97644531 29.45847656 -1.98804687 30.21773437 -2 31 C-2.33 31 -2.66 31 -3 31 C-3.22786458 29.01432292 -3.45572917 27.02864583 -3.68359375 25.04296875 C-3.97170735 22.80603607 -3.97170735 22.80603607 -5 20 C-6.6476038 19.28752268 -8.31763529 18.62599617 -10 18 C-12.3125 16.75 -12.3125 16.75 -14 15 C-14.25 11.8125 -14.25 11.8125 -14 9 C-13.51789062 9.42152344 -13.03578125 9.84304687 -12.5390625 10.27734375 C-11.90742187 10.82519531 -11.27578125 11.37304688 -10.625 11.9375 C-9.99851562 12.48277344 -9.37203125 13.02804688 -8.7265625 13.58984375 C-7.04367666 15.06958624 -7.04367666 15.06958624 -5 16 C-5.598125 14.88625 -6.19625 13.7725 -6.8125 12.625 C-7.14894531 11.99851562 -7.48539063 11.37203125 -7.83203125 10.7265625 C-9.04763493 8.69497635 -9.04763493 8.69497635 -12 7 C-11.34 6.67 -10.68 6.34 -10 6 C-10 5.01 -10 4.02 -10 3 C-13.96 4.98 -13.96 4.98 -18 7 C-17.12631695 4.06124794 -16.27959369 2.27057454 -14.0625 0.125 C-9.34110879 -1.60938861 -4.90232722 -0.71259748 0 0 Z " fill="#366F9D" transform="translate(46,23)"/>
<path d="M0 0 C0.99 0 1.98 0 3 0 C6.77777778 0.77777778 6.77777778 0.77777778 8 2 C8.09927286 3.9562593 8.12969729 5.91622909 8.125 7.875 C8.12886719 9.47988281 8.12886719 9.47988281 8.1328125 11.1171875 C8 14 8 14 7 17 C5.35 17 3.7 17 2 17 C1.01 14.36 0.02 11.72 -1 9 C-2.32 9.33 -3.64 9.66 -5 10 C-5.33 8.35 -5.66 6.7 -6 5 C-9.12474627 6.63473516 -9.12474627 6.63473516 -9.6875 9.125 C-9.790625 9.74375 -9.89375 10.3625 -10 11 C-10.66 11 -11.32 11 -12 11 C-12 12.65 -12 14.3 -12 16 C-12.33 16 -12.66 16 -13 16 C-12.80804825 6.0359593 -12.80804825 6.0359593 -9.5625 1.875 C-5.68717029 -0.9606071 -4.60450348 -1.01074467 0 0 Z " fill="#325C83" transform="translate(83,24)"/>
<path d="M0 0 C2.125 0.375 2.125 0.375 4 1 C3 4 3 4 1 5 C0.38576168 8.22133877 0.0396169 11.44639473 -0.33984375 14.703125 C-1 18 -1 18 -2.5546875 20.49609375 C-4.43833631 23.75938805 -4.30071292 26.07647362 -4.1875 29.8125 C-4.16042969 30.97394531 -4.13335938 32.13539062 -4.10546875 33.33203125 C-4.07066406 34.21246094 -4.03585938 35.09289063 -4 36 C-4.33 36 -4.66 36 -5 36 C-5.33 34.02 -5.66 32.04 -6 30 C-6.66 30 -7.32 30 -8 30 C-8.66 32.64 -9.32 35.28 -10 38 C-10.71223268 35.15106928 -11.32894314 32.45475961 -11.75 29.5625 C-11.86859375 28.82128906 -11.9871875 28.08007812 -12.109375 27.31640625 C-12 25 -12 25 -10.5703125 22.62109375 C-8.6920511 19.48598579 -8.47166949 17.1188913 -8.125 13.5 C-7.18145161 6.4233871 -7.18145161 6.4233871 -4.5 3.8125 C-3.675 3.214375 -2.85 2.61625 -2 2 C-1.34 1.34 -0.68 0.68 0 0 Z " fill="#6298C7" transform="translate(13,22)"/>
<path d="M0 0 C0.99 0.33 1.98 0.66 3 1 C2.39795395 7.18157144 0.55317819 12.61833761 -1.5625 18.4375 C-2.0565332 19.82098633 -2.0565332 19.82098633 -2.56054688 21.23242188 C-3.36782647 23.4904648 -4.18108727 25.74615565 -5 28 C-5.66 27.67 -6.32 27.34 -7 27 C-10.69729661 29.46486441 -10.83291144 30.88588138 -12.0625 35.0625 C-12.65353215 37.05871702 -13.28830249 39.04355219 -14 41 C-14.99 41.495 -14.99 41.495 -16 42 C-13.91148447 33.84226683 -11.39464894 25.85343709 -8.66601562 17.88989258 C-7.99137799 15.91222498 -7.33170409 13.92991578 -6.671875 11.94726562 C-6.2404904 10.68198205 -5.80823165 9.41699609 -5.375 8.15234375 C-4.79878906 6.4506604 -4.79878906 6.4506604 -4.2109375 4.71459961 C-3 2 -3 2 0 0 Z " fill="#376185" transform="translate(26,20)"/>
<path d="M0 0 C2.5625 1.5625 2.5625 1.5625 5 4 C4.8125 7.125 4.8125 7.125 4 11 C3.89274767 14.33944765 3.95421568 17.6577448 4 21 C0.37 21 -3.26 21 -7 21 C-7.125 14.375 -7.125 14.375 -6 11 C-5.34 11 -4.68 11 -4 11 C-3.896875 9.9275 -3.79375 8.855 -3.6875 7.75 C-3.02599507 4.14179128 -2.42516579 2.63604977 0 0 Z " fill="#3D709A" transform="translate(50,43)"/>
<path d="M0 0 C0.61875 0.804375 1.2375 1.60875 1.875 2.4375 C3.74164041 5.03874519 3.74164041 5.03874519 6 6 C6.33 5.34 6.66 4.68 7 4 C6.54623476 6.4503323 6.00128713 7.99815325 4.5625 10.0625 C2.9652433 13.0653426 2.5633181 15.1686653 2.0625 18.5 C1.32181332 23.0048321 0.59519935 25.91840056 -3 29 C-5.75 29.8125 -5.75 29.8125 -8 30 C-10 27 -10 27 -9.75 24.4375 C-9 22 -9 22 -7 20 C-6.30251417 18.68252676 -5.63040043 17.35085807 -5 16 C-5 18.64 -5 21.28 -5 24 C-4.34 24 -3.68 24 -3 24 C-2.87882812 23.18015625 -2.75765625 22.3603125 -2.6328125 21.515625 C-2.46523437 20.43796875 -2.29765625 19.3603125 -2.125 18.25 C-1.96257812 17.18265625 -1.80015625 16.1153125 -1.6328125 15.015625 C-1.06776118 12.32291129 -0.36577086 10.36427561 1 8 C-0.32 8 -1.64 8 -3 8 C-2.690625 7.236875 -2.38125 6.47375 -2.0625 5.6875 C-1.32106407 3.81210323 -0.63771783 1.91315348 0 0 Z " fill="#2E5171" transform="translate(92,45)"/>
<path d="M0 0 C0.33 0 0.66 0 1 0 C0.5003731 7.49440349 -1.43764478 13.95650263 -4 21 C-4.66 21 -5.32 21 -6 21 C-6.33 22.32 -6.66 23.64 -7 25 C-8.32 25 -9.64 25 -11 25 C-10.4140625 18.84765625 -10.4140625 18.84765625 -10 17 C-9.34 16.67 -8.68 16.34 -8 16 C-6.93455888 12.96035914 -6.07421739 9.88348062 -5.1953125 6.78515625 C-4 4 -4 4 -1.8671875 2.62109375 C-1.25101563 2.41613281 -0.63484375 2.21117187 0 2 C0 1.34 0 0.68 0 0 Z " fill="#4E779C" transform="translate(19,45)"/>
<path d="M0 0 C0.33 0 0.66 0 1 0 C1 2.97 1 5.94 1 9 C2.65 8.34 4.3 7.68 6 7 C5.505 8.3921875 5.505 8.3921875 5 9.8125 C3.54010305 14.80904873 3.83215198 19.8433358 4 25 C3.67 25 3.34 25 3 25 C2.67 23.02 2.34 21.04 2 19 C1.34 19 0.68 19 0 19 C-0.66 21.64 -1.32 24.28 -2 27 C-4.859375 15.5625 -4.859375 15.5625 -2.625 11.5 C-2.08875 10.675 -1.5525 9.85 -1 9 C-0.44726349 6.01319443 -0.19141532 3.02964254 0 0 Z " fill="#335573" transform="translate(5,33)"/>
<path d="M0 0 C0.43570313 0.42152344 0.87140625 0.84304687 1.3203125 1.27734375 C5.11013459 4.76365195 7.64559734 6.73880963 13 7 C12.01 7.495 12.01 7.495 11 8 C11.33 8.99 11.66 9.98 12 11 C12.0685495 12.89470816 12.08480372 14.7916834 12.0625 16.6875 C12.05347656 17.68136719 12.04445313 18.67523438 12.03515625 19.69921875 C12.02355469 20.45847656 12.01195312 21.21773437 12 22 C11.67 22 11.34 22 11 22 C10.77213542 20.01432292 10.54427083 18.02864583 10.31640625 16.04296875 C10.02829265 13.80603607 10.02829265 13.80603607 9 11 C7.3523962 10.28752268 5.68236471 9.62599617 4 9 C1.6875 7.75 1.6875 7.75 0 6 C-0.25 2.8125 -0.25 2.8125 0 0 Z " fill="#26425D" transform="translate(32,32)"/>
<path d="M0 0 C5.75 0.75 5.75 0.75 8 3 C8.80465645 10.47857174 7.79775047 17.74479273 6 25 C5.67 25 5.34 25 5 25 C4.85714286 17.57142857 4.85714286 17.57142857 6 14 C5.34 14 4.68 14 4 14 C4.08378906 13.38511719 4.16757813 12.77023438 4.25390625 12.13671875 C4.35574219 11.32847656 4.45757812 10.52023438 4.5625 9.6875 C4.71912109 8.48673828 4.71912109 8.48673828 4.87890625 7.26171875 C5.14755178 4.83182884 5.14755178 4.83182884 4 2 C3.67 3.65 3.34 5.3 3 7 C1.25372522 4.38058783 0.61277612 2.96175123 0 0 Z " fill="#26435F" transform="translate(92,24)"/>
<path d="M0 0 C0 4.62 0 9.24 0 14 C-1.9955516 10.00889681 -2.19546065 8.30013434 -2 4 C-2.99 4.33 -3.98 4.66 -5 5 C-5.99 4.34 -6.98 3.68 -8 3 C-12.14776273 2.71337567 -12.14776273 2.71337567 -16 4 C-15.1875 2.0625 -15.1875 2.0625 -14 0 C-9.27967883 -1.57344039 -4.92182643 -0.52113456 0 0 Z " fill="#203F59" transform="translate(46,23)"/>
<path d="M0 0 C0.61875 0.804375 1.2375 1.60875 1.875 2.4375 C3.74164041 5.03874519 3.74164041 5.03874519 6 6 C6.33 5.34 6.66 4.68 7 4 C6.5316944 6.52885025 5.91535229 8.13049855 4.5 10.3125 C2.69645625 13.54384922 2.35839025 16.34441948 2 20 C1.67 20 1.34 20 1 20 C1 16.04 1 12.08 1 8 C-0.32 8 -1.64 8 -3 8 C-2.690625 7.236875 -2.38125 6.47375 -2.0625 5.6875 C-1.32106407 3.81210323 -0.63771783 1.91315348 0 0 Z " fill="#20384F" transform="translate(92,45)"/>
<path d="M0 0 C0.33 0.66 0.66 1.32 1 2 C-0.6396875 2.4021875 -0.6396875 2.4021875 -2.3125 2.8125 C-6.35356287 4.04988333 -6.35356287 4.04988333 -9 7 C-9.71447643 9.10332891 -9.71447643 9.10332891 -10 11 C-10.66 11 -11.32 11 -12 11 C-12 12.65 -12 14.3 -12 16 C-12.33 16 -12.66 16 -13 16 C-12.80804825 6.0359593 -12.80804825 6.0359593 -9.5625 1.875 C-5.80968727 -0.87096053 -4.48938564 -1.26623697 0 0 Z " fill="#294D6E" transform="translate(83,24)"/>
<path d="M0 0 C3.53571429 0.53571429 3.53571429 0.53571429 5 2 C5.09927286 3.9562593 5.12969729 5.91622909 5.125 7.875 C5.12757812 8.94492187 5.13015625 10.01484375 5.1328125 11.1171875 C5 14 5 14 4 17 C2.35 17 0.7 17 -1 17 C-0.67 16.34 -0.34 15.68 0 15 C0.99 15.33 1.98 15.66 3 16 C2.7444669 10.13551546 2.34242429 6.34242429 -2 2 C-1.34 1.34 -0.68 0.68 0 0 Z " fill="#223B54" transform="translate(86,24)"/>
<path d="M0 0 C0.53625 0.268125 1.0725 0.53625 1.625 0.8125 C0.625 3.8125 0.625 3.8125 -1.375 4.8125 C-2.06837792 7.8524648 -2.06837792 7.8524648 -2.5 11.375 C-2.75136719 13.17130859 -2.75136719 13.17130859 -3.0078125 15.00390625 C-3.12898437 15.93074219 -3.25015625 16.85757813 -3.375 17.8125 C-3.705 17.8125 -4.035 17.8125 -4.375 17.8125 C-4.375 13.8525 -4.375 9.8925 -4.375 5.8125 C-6.025 7.4625 -7.675 9.1125 -9.375 10.8125 C-9.23763203 7.85908865 -9.02332501 5.60735048 -7.11328125 3.265625 C-3.19065494 -0.25189381 -3.19065494 -0.25189381 0 0 Z " fill="#28445D" transform="translate(15.375,22.1875)"/>
<path d="M0 0 C1.32 0 2.64 0 4 0 C4.37851209 5.93002267 3.10575375 10.47239641 1 16 C-0.55078125 14.390625 -0.55078125 14.390625 -2 12 C-1.85546875 8.984375 -1.85546875 8.984375 -1.1875 5.75 C-0.97480469 4.67234375 -0.76210938 3.5946875 -0.54296875 2.484375 C-0.36378906 1.66453125 -0.18460937 0.8446875 0 0 Z " fill="#72A4D1" transform="translate(4,51)"/>
<path d="M0 0 C1.32 0 2.64 0 4 0 C2.68 5.28 1.36 10.56 0 16 C-0.66 16 -1.32 16 -2 16 C-2.05449838 14.27119018 -2.09301688 12.54187288 -2.125 10.8125 C-2.14820312 9.84957031 -2.17140625 8.88664062 -2.1953125 7.89453125 C-1.9913544 4.87187222 -1.26874632 2.73230015 0 0 Z " fill="#6295C1" transform="translate(89,53)"/>
<path d="M0 0 C0.5775 0.78375 1.155 1.5675 1.75 2.375 C3.82897637 4.80047244 5.09040333 5.85694417 8 7 C7.34 5.35 6.68 3.7 6 2 C6.99 2.33 7.98 2.66 9 3 C8.67 5.31 8.34 7.62 8 10 C6.25 10.75 6.25 10.75 4 11 C1.75 9.5 1.75 9.5 0 7 C-0.25 3.25 -0.25 3.25 0 0 Z " fill="#2A4B68" transform="translate(29,47)"/>
<path d="M0 0 C2.15377564 2.62198774 3.40072174 4.64404172 4 8 C4.66 8 5.32 8 6 8 C6.33 9.65 6.66 11.3 7 13 C5.35 13 3.7 13 2 13 C1.66127487 11.58461283 1.32925376 10.16762037 1 8.75 C0.814375 7.96109375 0.62875 7.1721875 0.4375 6.359375 C0 4 0 4 0 0 Z " fill="#417DAF" transform="translate(57,50)"/>
<path d="M0 0 C0.66 0 1.32 0 2 0 C2 4.29 2 8.58 2 13 C-2 11 -2 11 -3 8 C-2.34 8 -1.68 8 -1 8 C-1.020625 6.865625 -1.04125 5.73125 -1.0625 4.5625 C-1 1 -1 1 0 0 Z " fill="#325A7F" transform="translate(96,38)"/>
<path d="M0 0 C2.45 9.1 2.45 9.1 1 12 C2.32 12 3.64 12 5 12 C5.66 10.68 6.32 9.36 7 8 C6.67 9.65 6.34 11.3 6 13 C4.02 13.33 2.04 13.66 0 14 C-1.49594333 9.32517708 -1.54799337 4.64398011 0 0 Z " fill="#22374A" transform="translate(7,58)"/>
<path d="M0 0 C0 0.66 0 1.32 0 2 C-0.77085938 1.98839844 -1.54171875 1.97679687 -2.3359375 1.96484375 C-3.33882812 1.95582031 -4.34171875 1.94679688 -5.375 1.9375 C-6.87160156 1.92009766 -6.87160156 1.92009766 -8.3984375 1.90234375 C-10.98432453 1.81993398 -10.98432453 1.81993398 -13 3 C-12.1875 1.0625 -12.1875 1.0625 -11 -1 C-6.82518761 -2.39160413 -4.09766916 -1.36588972 0 0 Z " fill="#152332" transform="translate(43,24)"/>
<path d="M0 0 C2.31 1.98 4.62 3.96 7 6 C6.67 6.66 6.34 7.32 6 8 C1.125 7.125 1.125 7.125 0 6 C-0.04080783 4.00041636 -0.04254356 1.99954746 0 0 Z " fill="#294766" transform="translate(32,32)"/>
<path d="M0 0 C0.33 0.66 0.66 1.32 1 2 C0.38511719 2.04898437 -0.22976562 2.09796875 -0.86328125 2.1484375 C-1.67152344 2.22320313 -2.47976562 2.29796875 -3.3125 2.375 C-4.51326172 2.47941406 -4.51326172 2.47941406 -5.73828125 2.5859375 C-8.27224441 2.89564426 -8.27224441 2.89564426 -11 5 C-10.03558469 2.58896173 -9.31202953 1.22595242 -7.1875 -0.3125 C-4.412391 -1.18467711 -2.74613125 -0.89063716 0 0 Z " fill="#182837" transform="translate(83,24)"/>
<path d="M0 0 C0.33 0 0.66 0 1 0 C1.125 5.75 1.125 5.75 0 8 C-1.32 8 -2.64 8 -4 8 C-2.25 2.25 -2.25 2.25 0 0 Z " fill="#6497C3" transform="translate(12,62)"/>
<path d="M0 0 C1.5625 1.8125 1.5625 1.8125 3 4 C2.67 4.99 2.34 5.98 2 7 C0.35 7.33 -1.3 7.66 -3 8 C-2.690625 7.236875 -2.38125 6.47375 -2.0625 5.6875 C-1.32106407 3.81210323 -0.63771783 1.91315348 0 0 Z " fill="#243F58" transform="translate(92,45)"/>
<path d="M0 0 C0.33 0 0.66 0 1 0 C1 2.64 1 5.28 1 8 C-0.65 8 -2.3 8 -4 8 C-4.33 6.68 -4.66 5.36 -5 4 C-3.68 4 -2.36 4 -1 4 C-0.67 2.68 -0.34 1.36 0 0 Z " fill="#2B4A67" transform="translate(80,50)"/>
<path d="M0 0 C2.875 0.25 2.875 0.25 6 1 C7.375 3.0625 7.375 3.0625 8 5 C4.125 4.125 4.125 4.125 3 3 C2.67 4.32 2.34 5.64 2 7 C1.34 4.69 0.68 2.38 0 0 Z " fill="#182A3B" transform="translate(92,24)"/>
<path d="M0 0 C0.99 0.33 1.98 0.66 3 1 C2.67 3.31 2.34 5.62 2 8 C1.67 8 1.34 8 1 8 C1 6.35 1 4.7 1 3 C-0.32 3.33 -1.64 3.66 -3 4 C-2.67 3.01 -2.34 2.02 -2 1 C-1.34 0.67 -0.68 0.34 0 0 Z " fill="#162736" transform="translate(26,20)"/>
<path d="M0 0 C0.66 0 1.32 0 2 0 C2 2.31 2 4.62 2 7 C0.68 7 -0.64 7 -2 7 C-2 6.34 -2 5.68 -2 5 C-1.34 5 -0.68 5 0 5 C0 3.35 0 1.7 0 0 Z " fill="#295579" transform="translate(69,57)"/>
<path d="M0 0 C0.33 0 0.66 0 1 0 C1 1.98 1 3.96 1 6 C-0.65 6.33 -2.3 6.66 -4 7 C-3.6875 5.0625 -3.6875 5.0625 -3 3 C-2.01 2.67 -1.02 2.34 0 2 C0 1.34 0 0.68 0 0 Z " fill="#5486B1" transform="translate(19,45)"/>
<path d="M0 0 C0.33 0.66 0.66 1.32 1 2 C2.65 1.34 4.3 0.68 6 0 C5.67 1.65 5.34 3.3 5 5 C3.35 5 1.7 5 0 5 C0 3.35 0 1.7 0 0 Z " fill="#2A4763" transform="translate(55,37)"/>
<path d="M0 0 C3.00617269 3.00617269 2.59585316 5.82381598 3 10 C1.5 8.9375 1.5 8.9375 0 7 C-0.1875 3.3125 -0.1875 3.3125 0 0 Z " fill="#2E5579" transform="translate(29,47)"/>
<path d="M0 0 C1.32 0.33 2.64 0.66 4 1 C4 2.65 4 4.3 4 6 C3.01 6 2.02 6 1 6 C0.67 4.02 0.34 2.04 0 0 Z " fill="#407BAC" transform="translate(40,33)"/>
<path d="M0 0 C0.66 0.99 1.32 1.98 2 3 C0.515 5.475 0.515 5.475 -1 8 C-1.93065133 5.39417629 -2.14917407 4.35801776 -1.0625 1.75 C-0.711875 1.1725 -0.36125 0.595 0 0 Z " fill="#2A577D" transform="translate(94,31)"/>
<path d="M0 0 C0.66 0 1.32 0 2 0 C4 3 4 3 4 7 C3.01 7 2.02 7 1 7 C0.67 4.69 0.34 2.38 0 0 Z " fill="#4D84B3" transform="translate(94,26)"/>
</svg>
