<svg width="32" height="32" viewBox="0 0 32 32" fill="none" xmlns="http://www.w3.org/2000/svg">
  <defs>
    <linearGradient id="bgGradient" x1="0%" y1="0%" x2="100%" y2="100%">
      <stop offset="0%" style="stop-color:#4B88D0;stop-opacity:1" />
      <stop offset="100%" style="stop-color:#357AC8;stop-opacity:1" />
    </linearGradient>
    <linearGradient id="codeGradient" x1="0%" y1="0%" x2="100%" y2="100%">
      <stop offset="0%" style="stop-color:#FFFFFF;stop-opacity:1" />
      <stop offset="100%" style="stop-color:#E8F4FF;stop-opacity:1" />
    </linearGradient>
  </defs>
  
  <!-- Background circle -->
  <circle cx="16" cy="16" r="15" fill="url(#bgGradient)" stroke="#2C5AA0" stroke-width="1"/>
  
  <!-- Code brackets representing software development -->
  <path d="M8 10 L5 13 L5 19 L8 22" stroke="url(#codeGradient)" stroke-width="2.5" stroke-linecap="round" stroke-linejoin="round" fill="none"/>
  <path d="M24 10 L27 13 L27 19 L24 22" stroke="url(#codeGradient)" stroke-width="2.5" stroke-linecap="round" stroke-linejoin="round" fill="none"/>
  
  <!-- AI/Neural network nodes in the center -->
  <circle cx="16" cy="12" r="1.5" fill="url(#codeGradient)"/>
  <circle cx="12" cy="16" r="1.5" fill="url(#codeGradient)"/>
  <circle cx="20" cy="16" r="1.5" fill="url(#codeGradient)"/>
  <circle cx="16" cy="20" r="1.5" fill="url(#codeGradient)"/>
  
  <!-- Neural network connections -->
  <path d="M16 12 L12 16 M16 12 L20 16 M12 16 L16 20 M20 16 L16 20" stroke="url(#codeGradient)" stroke-width="1.5" stroke-opacity="0.7"/>
  
  <!-- Subtle outer glow -->
  <circle cx="16" cy="16" r="15" fill="none" stroke="rgba(255,255,255,0.15)" stroke-width="1"/>
</svg>